<svg width="80" height="60" viewBox="0 0 80 60" fill="none" xmlns="http://www.w3.org/2000/svg">
<path fill-rule="evenodd" clip-rule="evenodd" d="M73.5355 53.5355C74.4732 52.5979 75 51.3261 75 50V20C75 18.6739 74.4732 17.4021 73.5355 16.4645C72.5979 15.5268 71.3261 15 70 15H64.14C62.1695 15.0002 60.2182 14.6122 58.3977 13.8581C56.5772 13.104 54.9232 11.9986 53.53 10.605L49.39 6.465C48.4525 5.52725 47.181 5.00028 45.855 5H34.135C32.8125 5.00293 31.545 5.5297 30.61 6.465L26.46 10.605C23.6488 13.417 19.8362 14.9978 15.86 15H10C8.67392 15 7.40215 15.5268 6.46447 16.4645C5.52678 17.4021 5 18.6739 5 20V50C5 51.3261 5.52678 52.5979 6.46447 53.5355C7.40215 54.4732 8.67392 55 10 55H70C71.3261 55 72.5979 54.4732 73.5355 53.5355ZM2.92893 12.9289C4.8043 11.0536 7.34784 10 10 10H15.86C18.5119 9.99943 21.0551 8.94549 22.93 7.07L27.07 2.93C28.9449 1.05451 31.4881 0.000566374 34.14 0H45.86C48.5119 0.000566374 51.0551 1.05451 52.93 2.93L57.07 7.07C58.9449 8.94549 61.4881 9.99943 64.14 10H70C72.6522 10 75.1957 11.0536 77.0711 12.9289C78.9464 14.8043 80 17.3478 80 20V50C80 52.6522 78.9464 55.1957 77.0711 57.0711C75.1957 58.9464 72.6522 60 70 60H10C7.34784 60 4.8043 58.9464 2.92893 57.0711C1.05357 55.1957 0 52.6522 0 50V20C0 17.3478 1.05357 14.8043 2.92893 12.9289ZM31.1612 41.3388C33.5054 43.683 36.6848 45 40 45C43.3152 45 46.4946 43.683 48.8388 41.3388C51.183 38.9946 52.5 35.8152 52.5 32.5C52.5 29.1848 51.183 26.0054 48.8388 23.6612C46.4946 21.317 43.3152 20 40 20C36.6848 20 33.5054 21.317 31.1612 23.6612C28.817 26.0054 27.5 29.1848 27.5 32.5C27.5 35.8152 28.817 38.9946 31.1612 41.3388ZM52.3744 44.8744C49.0925 48.1563 44.6413 50 40 50C35.3587 50 30.9075 48.1563 27.6256 44.8744C24.3437 41.5925 22.5 37.1413 22.5 32.5C22.5 27.8587 24.3437 23.4075 27.6256 20.1256C30.9075 16.8437 35.3587 15 40 15C44.6413 15 49.0925 16.8437 52.3744 20.1256C55.6563 23.4075 57.5 27.8587 57.5 32.5C57.5 37.1413 55.6563 41.5925 52.3744 44.8744ZM14.2678 24.2678C14.7366 23.7989 15 23.163 15 22.5C15 21.837 14.7366 21.2011 14.2678 20.7322C13.7989 20.2634 13.163 20 12.5 20C11.837 20 11.2011 20.2634 10.7322 20.7322C10.2634 21.2011 10 21.837 10 22.5C10 23.163 10.2634 23.7989 10.7322 24.2678C11.2011 24.7366 11.837 25 12.5 25C13.163 25 13.7989 24.7366 14.2678 24.2678Z" fill="url(#paint0_linear)"/>
<defs>
<linearGradient id="paint0_linear" x1="40" y1="0" x2="40" y2="60" gradientUnits="userSpaceOnUse">
<stop stop-color="#0E1F40"/>
<stop offset="1" stop-color="#E21C34"/>
</linearGradient>
</defs>
</svg>
