<svg width="118" height="111" viewBox="0 0 118 111" fill="none" xmlns="http://www.w3.org/2000/svg">
<path d="M113.494 63.5358C114.012 72.4637 109.923 81.0459 102.608 86.2875L107.043 94.8697C108.368 97.4617 108.54 100.514 107.388 103.222C106.294 105.929 104.048 108.06 101.283 108.982L96.7325 110.422C94.8378 111.06 92.7923 111.098 90.875 110.531C88.9577 109.964 87.262 108.82 86.0191 107.254L73.808 92.8538C68.6817 91.9898 63.8434 89.801 59.7538 86.5179C56.8739 87.3818 53.9939 87.8426 51.114 87.8426C46.0452 87.8426 40.9765 86.2875 36.7142 83.2923C33.6614 84.2139 30.5511 84.6171 27.3831 84.5595C22.8328 84.6171 18.34 83.6955 14.1353 81.9675C10.088 80.1617 6.62977 77.2547 4.15498 73.5782C1.68019 69.9016 0.288519 65.6036 0.138702 61.1742C-0.322091 57.0271 0.369099 52.8223 2.15467 49.0208C0.484298 44.7009 0.3115 39.9777 1.75148 35.6002C3.88265 30.1283 7.91459 25.5779 12.9257 22.698C16.2665 12.9637 25.6551 6.45501 35.9654 7.1462C45.1813 -1.49368 59.2931 -2.41526 69.5457 5.01503C71.9649 4.38144 74.4992 4.03584 77.0336 4.03584C84.8671 3.86304 92.2974 7.31899 97.1933 13.4821C108.944 16.5349 117.353 27.0179 117.814 39.2289C118.102 45.6224 116.374 51.9008 112.86 57.2575C113.263 59.331 113.494 61.4046 113.494 63.5358ZM84.6943 55.4143C87.9774 55.8175 90.5694 58.2943 90.5694 61.5774C90.5694 63.105 89.9626 64.5701 88.8824 65.6503C87.8022 66.7305 86.3371 67.3373 84.8095 67.3373H81.1807C79.3376 72.5213 76.112 77.0716 71.8497 80.5275C73.2897 81.0459 74.7872 81.3339 76.2848 81.7371C105.833 81.3339 102.377 63.3054 102.377 63.0174C102.224 59.0609 100.506 55.3271 97.6004 52.6375C94.6947 49.9478 90.8396 48.5225 86.883 48.6752C85.3554 48.6752 83.8904 48.0684 82.8102 46.9882C81.73 45.908 81.1231 44.4429 81.1231 42.9153C81.1231 41.3877 81.73 39.9226 82.8102 38.8424C83.8904 37.7622 85.3554 37.1554 86.883 37.1554C93.9678 37.3282 100.764 39.9777 106.064 44.6433C106.352 42.9729 106.524 41.2449 106.524 39.5169C106.179 32.3746 102.953 26.1539 89.9934 24.9443C82.7935 7.89499 64.6498 17.3413 64.6498 22.6404C64.477 23.9652 65.8594 26.7875 66.0898 26.9603C67.6174 26.9603 69.0824 27.5672 70.1626 28.6474C71.2428 29.7275 71.8497 31.1926 71.8497 32.7202C71.8497 35.8882 69.2577 38.4801 66.0898 38.4801C63.037 38.365 60.157 37.213 57.8531 35.2546C55.0883 37.0402 51.9204 38.1346 48.6372 38.4801C45.354 38.7681 42.6469 36.4642 42.4741 33.2962C42.368 32.5438 42.4168 31.7777 42.6175 31.0448C42.8182 30.3119 43.1666 29.6278 43.6412 29.0345C44.1159 28.4412 44.7069 27.9511 45.3778 27.5944C46.0487 27.2377 46.7855 27.0219 47.5428 26.9603C48.4644 26.8451 52.9571 26.1539 52.9571 22.5252C52.9571 18.7236 54.3971 15.0949 56.8739 12.2149C51.5748 10.7749 45.8724 12.6757 40.1125 19.6452C29.5143 17.9748 25.1943 19.4148 22.0264 30.6467C16.5545 33.3538 13.6745 35.2546 12.4073 41.0145C18.628 39.7473 25.0215 40.2657 30.9543 42.4545C33.8342 43.5489 35.447 46.7744 34.3526 49.8848C33.2582 52.8799 29.9175 54.3775 26.9223 53.2831C22.7176 51.44 17.9944 51.3248 13.6745 52.9375C11.8313 54.4927 11.8313 57.7183 11.8313 60.2526C11.8313 64.515 13.9625 68.4893 17.5913 70.7933C20.644 72.3485 24.0424 73.1548 27.4407 73.0972C26.5767 71.5997 25.8279 70.0445 25.1943 68.4317C24.7409 66.9519 24.879 65.3538 25.5797 63.9737C26.2803 62.5936 27.4888 61.5389 28.9511 61.0316C30.4134 60.5243 32.0154 60.6038 33.4203 61.2535C34.8251 61.9031 35.9233 63.0723 36.4838 64.515C38.7877 71.0813 44.6629 75.574 51.5748 76.3228C59.4659 75.9196 66.493 71.2541 69.9489 64.0542C71.2737 56.1055 77.6672 55.4143 84.6943 55.4143ZM96.2141 98.4409L92.643 90.953L88.5534 91.8746L94.3133 99.0745L96.2141 98.4409ZM69.4305 48.848C69.4806 47.3766 68.9653 45.9418 67.9905 44.8385C67.0157 43.7351 65.6554 43.0469 64.189 42.9153C60.0994 42.6849 56.1251 44.0673 53.0723 46.7744C49.7892 50.1152 48.0612 54.7231 48.234 59.3886C48.234 60.9163 48.8409 62.3813 49.9211 63.4615C51.0012 64.5417 52.4663 65.1486 53.9939 65.1486C57.2771 65.1486 59.7538 62.5566 59.7538 59.3886C59.7538 57.8335 60.157 56.2783 61.0786 55.0111C61.7698 54.4351 62.6338 54.1471 63.5554 54.1471C66.7233 54.3199 69.4305 51.9584 69.4305 48.848Z" fill="url(#paint0_linear)"/>
<defs>
<linearGradient id="paint0_linear" x1="0" y1="0" x2="120.173" y2="108.115" gradientUnits="userSpaceOnUse">
<stop stop-color="#0E1F40"/>
<stop offset="1" stop-color="#D12B38"/>
</linearGradient>
</defs>
</svg>
