<svg width="21" height="26" viewBox="0 0 21 26" fill="none" xmlns="http://www.w3.org/2000/svg">
<path d="M8.13454 4.21121C9.96346 4.20927 11.7436 4.80305 13.2073 5.90329C13.2636 5.94652 13.3336 5.96786 13.4043 5.96337C13.475 5.95887 13.5417 5.92886 13.5921 5.87885L16.1711 3.2937C16.2 3.26432 16.2224 3.2292 16.237 3.19061C16.2515 3.15201 16.2578 3.11079 16.2555 3.06959C16.2532 3.0284 16.2424 2.98814 16.2236 2.95141C16.2049 2.91468 16.1787 2.88229 16.1468 2.85632C13.8839 1.00874 11.0556 0 8.13819 0C5.22076 0 2.39245 1.00874 0.129612 2.85632C0.0976539 2.88229 0.0714642 2.91468 0.0527317 2.95141C0.0339992 2.98814 0.0231384 3.0284 0.0208446 3.06959C0.0185508 3.11079 0.0248753 3.15201 0.0394135 3.19061C0.0539518 3.2292 0.0763806 3.26432 0.105258 3.2937L2.6794 5.87641C2.72976 5.92636 2.79637 5.95645 2.86703 5.96116C2.93769 5.96587 3.00767 5.94489 3.06418 5.90206C4.52735 4.80269 6.30656 4.20936 8.13454 4.21121Z" fill="white"/>
<path d="M16.6251 12.7314C16.6272 14.5727 16.0322 16.3647 14.9301 17.8369C14.8901 17.8893 14.8704 17.9545 14.8746 18.0203C14.8789 18.0861 14.9068 18.1482 14.9532 18.1949L17.5566 20.8082C17.5832 20.835 17.6151 20.856 17.6502 20.8698C17.6853 20.8836 17.7229 20.8898 17.7606 20.8882C17.7983 20.8866 17.8353 20.8772 17.8691 20.8604C17.9029 20.8437 17.9329 20.8201 17.9572 20.7911C19.81 18.5169 20.8222 15.6699 20.8222 12.7326C20.8222 9.7953 19.81 6.94833 17.9572 4.67416C17.9328 4.64512 17.9027 4.62147 17.8688 4.60473C17.8348 4.58799 17.7978 4.57851 17.76 4.57691C17.7222 4.5753 17.6845 4.58159 17.6493 4.59539C17.614 4.60919 17.5821 4.63019 17.5553 4.65705L14.952 7.26786C14.9053 7.31468 14.8771 7.37697 14.8729 7.44308C14.8686 7.50919 14.8885 7.57459 14.9288 7.62705C16.0317 9.09855 16.6271 10.8903 16.6251 12.7314Z" fill="white"/>
<path d="M8.1331 21.2517C6.29579 21.2541 4.50772 20.6558 3.03961 19.5474C2.98871 19.5083 2.9254 19.4889 2.86138 19.493C2.79736 19.497 2.73696 19.5242 2.69136 19.5694L0.0782502 22.1912C0.0520792 22.2173 0.0316209 22.2485 0.0181882 22.2829C0.00475548 22.3173 -0.00135436 22.3542 0.000250963 22.3911C0.00185629 22.428 0.0111394 22.4642 0.027508 22.4973C0.0438765 22.5305 0.0669663 22.5598 0.0952956 22.5834C2.36268 24.4449 5.20216 25.462 8.13188 25.462C11.0616 25.462 13.9011 24.4449 16.1685 22.5834C16.1966 22.5598 16.2195 22.5305 16.2358 22.4975C16.252 22.4645 16.2612 22.4285 16.2629 22.3917C16.2645 22.3549 16.2584 22.3182 16.2451 22.2839C16.2318 22.2496 16.2115 22.2185 16.1855 22.1925L13.5712 19.5694C13.5258 19.5243 13.4656 19.4971 13.4018 19.4931C13.338 19.489 13.2749 19.5084 13.2242 19.5474C11.7566 20.6552 9.96956 21.2534 8.1331 21.2517Z" fill="white"/>
<path d="M8.13321 17.8235C10.9362 17.8235 13.2084 15.5437 13.2084 12.7314C13.2084 9.9191 10.9362 7.63928 8.13321 7.63928C5.33024 7.63928 3.05798 9.9191 3.05798 12.7314C3.05798 15.5437 5.33024 17.8235 8.13321 17.8235Z" fill="#D12B38"/>
</svg>
