<svg width="53" height="70" viewBox="0 0 53 70" fill="none" xmlns="http://www.w3.org/2000/svg">
<path d="M50.7286 16.5468C49.9701 14.7168 49.2099 13.2491 48.3354 11.9284C47.3935 10.4995 46.3207 9.16173 45.1309 7.93263C42.8444 5.58464 40.1143 3.66626 37.2351 2.38561C35.4449 1.5893 33.8184 1.03128 32.2623 0.678369C30.5116 0.280421 28.7261 0.0559898 26.9315 0.00831361C23.5268 -0.0778671 20.1045 0.5073 17.0379 1.7022C13.7557 2.97939 10.8327 4.80039 8.34754 7.11348C5.97158 9.32488 3.99569 12.015 2.63216 14.8917C1.08987 18.1494 0.214085 21.5953 0.0310211 25.1347C-0.0716838 27.1169 0.0808692 29.2352 0.485243 31.4289C0.847074 33.3921 1.49124 35.3825 2.45511 37.5146C3.24796 39.2671 4.33345 41.017 5.77347 42.8656C6.96675 44.3958 8.34074 45.7753 9.86534 46.9738C10.6861 47.6202 11.3797 48.126 12.0406 48.563C12.409 49.1048 12.748 49.6516 13.0574 50.2034C13.3668 50.7553 13.6444 51.3075 13.8902 51.8602C14.317 52.9112 14.6265 54.0063 14.8128 55.1256C14.8235 55.2252 14.8326 55.3161 14.8394 55.4014C14.7137 55.7316 14.6492 56.0821 14.6491 56.4356V65.7991C14.6491 65.9426 14.6491 66.0857 14.6491 66.23C14.6491 66.5183 14.6491 66.8061 14.6491 67.0918V67.103C14.673 67.8721 14.9773 68.6056 15.5042 69.1649L15.5296 69.1865L15.9206 69.4881L16.0573 69.5937L16.0788 69.6062C16.5199 69.8644 17.0217 70.0004 17.5325 70H35.0994C35.1277 70 35.1565 70 35.1853 70C35.9213 69.9517 36.6177 69.6485 37.1552 69.1421L37.178 69.1154C37.3069 68.9464 37.4388 68.7767 37.5695 68.6073L37.5849 68.5875L37.5978 68.5655C37.8553 68.1228 37.9907 67.6194 37.9902 67.1069V57.7473C37.9902 57.602 37.9902 57.456 37.9902 57.3103C37.9902 57.0669 37.9902 56.823 37.9902 56.5752V56.4433C37.9995 56.196 37.9697 55.9487 37.9016 55.7108L37.8853 55.6582C37.8608 55.5721 37.8324 55.4859 37.7994 55.3997C37.8067 55.3135 37.8157 55.2226 37.8264 55.1218C37.9139 54.5795 38.033 54.0428 38.1831 53.5145C38.3421 52.9533 38.5303 52.4008 38.7469 51.8594C39.2643 50.7077 39.8827 49.6045 40.5947 48.5625C43.3342 46.7717 45.7394 44.4642 47.745 41.703C48.6795 40.4163 49.4838 39.0393 50.1459 37.5926C50.9662 35.797 51.5485 34.135 51.9258 32.5127C52.3948 30.5069 52.6344 28.454 52.64 26.3938V26.3805C52.6353 22.9522 51.9748 19.5502 50.7286 16.5468ZM20.4169 64.219V59.3282H32.2236V64.219H20.4169ZM46.7085 29.1745C46.4372 30.9705 45.958 32.7287 45.2805 34.4134C44.5653 36.039 43.6683 37.5778 42.6067 39.0004C41.5091 40.3788 40.261 41.6296 38.8857 42.7294C38.419 43.0793 37.9506 43.4055 37.493 43.6994C37.4388 43.7338 37.3847 43.7674 37.3301 43.8015C37.2592 43.8446 37.1861 43.8907 37.1152 43.9385C36.5647 44.2996 36.2274 44.7753 35.9296 45.1955C35.689 45.5341 35.4569 45.8802 35.2382 46.224C34.4935 47.3957 33.8334 48.7082 33.221 50.237C32.7919 51.3047 32.4717 52.4132 32.2653 53.5455H20.3735C20.361 53.4779 20.349 53.4111 20.3369 53.3447C20.1632 52.4176 19.9081 51.5078 19.5746 50.6257C19.0632 49.2415 18.4245 47.908 17.6666 46.6424C17.4616 46.3046 17.2425 45.9633 17.0147 45.6277C16.8996 45.4583 16.7784 45.2829 16.6525 45.1071C16.4677 44.8486 15.6331 44.0049 15.3345 43.817C14.8042 43.4835 14.2752 43.1185 13.7612 42.7316C12.3829 41.6307 11.1324 40.378 10.0334 38.9969C8.96874 37.571 8.06955 36.0282 7.35315 34.3983C6.67921 32.7174 6.20231 30.9636 5.93204 29.1723C5.71288 27.3209 5.71288 25.45 5.93204 23.5986C6.20306 21.8069 6.68187 20.0532 7.35874 18.373C8.0714 16.7517 8.96522 15.2168 10.023 13.7977C11.1228 12.414 12.3745 11.1589 13.7544 10.0561C15.1713 8.99397 16.7039 8.09667 18.3228 7.38151C20.0053 6.69975 21.7617 6.21816 23.556 5.9466C25.3922 5.72985 27.2474 5.72985 29.0836 5.9466C30.8766 6.21804 32.6317 6.69934 34.313 7.38064C35.9321 8.09665 37.4649 8.99481 38.8818 10.0578C40.2588 11.1579 41.5083 12.4094 42.6067 13.789C43.669 15.211 44.5665 16.7496 45.2818 18.3752C45.9591 20.0572 46.4379 21.8128 46.7085 23.6063C46.9308 25.4558 46.9308 27.3254 46.7085 29.1749V29.1745Z" fill="url(#paint0_linear_619_69)"/>
<defs>
<linearGradient id="paint0_linear_619_69" x1="26.32" y1="0" x2="26.32" y2="70" gradientUnits="userSpaceOnUse">
<stop stop-color="#0E1F40"/>
<stop offset="1" stop-color="#E21C34"/>
</linearGradient>
</defs>
</svg>
