<svg width="112" height="111" viewBox="0 0 112 111" fill="none" xmlns="http://www.w3.org/2000/svg">
<path fill-rule="evenodd" clip-rule="evenodd" d="M110.474 105.183L100.828 95.4025V104.208H6.7219V90.2603H13.4437V84.8828H6.7219V62.5327H13.4437V57.1552H6.7219V35.6453H13.4437V30.2678H6.7219V11.4803L60.295 64.7509V55.2731L5.74723 0.994213C5.27714 0.520226 4.67654 0.19697 4.02201 0.06566C3.36748 -0.0656501 2.68867 0.000934428 2.07213 0.256925C1.45559 0.512915 0.929247 0.946714 0.560214 1.50301C0.191181 2.05931 -0.00382533 2.71291 5.68566e-05 3.38047V107.569C5.68566e-05 108.46 0.354153 109.315 0.984448 109.946C1.61474 110.576 2.46961 110.93 3.36098 110.93H108.087C108.755 110.934 109.408 110.739 109.965 110.37C110.521 110.001 110.955 109.474 111.211 108.858C111.467 108.241 111.533 107.563 111.402 106.908C111.271 106.253 110.948 105.653 110.474 105.183ZM23.5265 55.1721V87.4034H55.7577L49.0359 80.6815H30.2483V61.894L23.5265 55.1721ZM87.3839 97.4861H73.9403C72.1575 97.4861 70.4478 96.7779 69.1872 95.5173C67.9266 94.2567 67.2184 92.547 67.2184 90.7642V25.9657L74.5452 11.9506C75.1077 10.8648 75.9558 9.95291 76.9981 9.31329C78.0405 8.67368 79.2376 8.33055 80.4604 8.32084C81.6563 8.3042 82.8349 8.60688 83.8747 9.19768C84.9145 9.78848 85.7778 10.646 86.3757 11.6818L94.1058 25.8985V90.7642C94.1058 92.547 93.3976 94.2567 92.137 95.5173C90.8764 96.7779 89.1667 97.4861 87.3839 97.4861ZM80.4604 14.9082L73.9403 27.5789V77.3205H87.3839V27.6125L80.4604 14.9082ZM87.3839 82.7989H73.9403V90.9995H87.3839V82.7989Z" fill="url(#paint0_linear)"/>
<defs>
<linearGradient id="paint0_linear" x1="67.2184" y1="8.32019" x2="113.792" y2="20.2136" gradientUnits="userSpaceOnUse">
<stop stop-color="#0E1F40"/>
<stop offset="1" stop-color="#D12B38"/>
</linearGradient>
</defs>
</svg>
