<svg width="382" height="120" viewBox="0 0 382 120" fill="none" xmlns="http://www.w3.org/2000/svg">
<g clip-path="url(#clip0)">
<path d="M54.833 49.5692C53.4329 50.8406 28.4462 73.645 28.4462 73.645C28.0145 74.0358 27.6411 73.9133 26.5269 72.6885L0.746787 44.4192C0.0175478 43.6144 -0.215809 43.2878 0.285908 42.8329L26.8302 18.5996C31.9874 13.8987 38.0839 11.8807 45.1546 19.6319L55.6906 31.174C63.6481 39.8934 59.1968 45.574 54.833 49.5692ZM43.1652 21.5157C37.5938 15.4093 33.055 16.5408 28.6154 20.5884L4.24714 42.8562C3.66375 43.3753 3.94377 43.8185 4.32881 44.2443L27.3203 69.4282C27.9737 70.1398 28.2712 70.1806 28.8779 69.6265L53.0595 47.5454C56.4199 44.4776 60.6436 40.6282 54.1096 33.4662L43.1652 21.5157Z" fill="#233B6C"/>
<path d="M49.9267 47.3935L28.8604 66.6402C28.5337 66.9376 28.277 66.8443 27.3903 65.917L7.65997 44.2616C7.07658 43.6492 6.91907 43.3984 7.3041 43.0485L28.5104 23.7085C32.4541 20.1099 37.1154 18.5702 42.5118 24.5017L50.5859 33.326C56.6765 39.9981 53.252 44.3199 49.9267 47.3935ZM41.0008 25.9306C36.7362 21.2647 33.265 22.1221 29.8697 25.219L10.3319 43.066C9.88853 43.4684 10.0986 43.8067 10.3961 44.1274L27.9795 63.3741C28.4812 63.9223 28.7087 63.9573 29.1463 63.5257C29.1463 63.5257 47.8848 46.4254 48.5441 45.8305C51.1168 43.4975 54.378 40.5347 49.3433 35.0582L41.0008 25.9306Z" fill="#233B6C"/>
<path d="M45.8604 45.5915C45.0845 46.3147 29.2046 60.7847 29.2046 60.7847C28.9596 61.0063 28.7495 60.9363 28.1136 60.2423L13.4122 44.1334C12.998 43.6785 12.8638 43.4918 13.1496 43.2352L29.9163 27.9487C32.8333 25.2658 36.3336 24.1227 40.359 28.5319L46.3505 35.1166C50.8834 40.0858 48.3457 43.3227 45.8604 45.5915ZM39.2506 29.6051C36.0711 26.1057 33.4867 26.7706 30.9548 29.0743C29.9163 30.0075 16.0316 42.6695 15.4015 43.2469C15.0748 43.5443 15.2323 43.7951 15.4482 44.0342L28.5512 58.3876C28.9245 58.7958 29.0937 58.8192 29.4379 58.5042L44.8511 44.4425C46.7647 42.6928 49.1741 40.4998 45.4345 36.4172L39.2506 29.6051Z" fill="#233B6C"/>
<path d="M58.7184 66.7915L34.6418 40.4119C34.2509 39.9861 34.3734 39.6129 35.5927 38.493L63.858 12.7025C64.6631 11.9735 64.9898 11.7402 65.4449 12.2418L89.6906 38.8022C94.3578 43.9521 96.4054 50.0469 88.6522 57.1215L77.1069 67.6197C68.3852 75.6099 62.7029 71.1482 58.7184 66.7915ZM86.7795 55.1268C92.8876 49.5686 91.7558 45.0427 87.7071 40.6102L65.4274 16.1961C64.9023 15.6128 64.4589 15.8986 64.0389 16.2836L38.8422 39.2629C38.1305 39.922 38.0838 40.2369 38.6672 40.8201L60.7544 65.0126C63.823 68.3779 67.6792 72.5946 74.8375 66.0683L86.7795 55.1268Z" fill="#233B6C"/>
<path d="M60.8886 61.8925L41.66 40.8203C41.3625 40.4937 41.4558 40.2079 42.3892 39.3564L64.0156 19.6256C64.599 19.0424 64.879 18.8908 65.229 19.2757L84.5801 40.4762C88.1738 44.4188 89.714 49.0789 83.7867 54.4738L74.9542 62.5515C68.2802 68.6405 63.9339 65.2286 60.8886 61.8925ZM82.3516 52.9924C87.0187 48.7289 86.1611 45.2529 83.0633 41.8585L65.2115 22.3027C64.809 21.8653 64.4706 22.0752 64.1497 22.3727L44.8978 39.9513C44.3494 40.4529 44.3144 40.6803 44.7461 41.1178C44.7461 41.1178 61.8512 59.857 62.4462 60.5161C64.7798 63.0881 67.7493 66.3134 73.2273 61.3151L82.3516 52.9924Z" fill="#233B6C"/>
<path d="M62.6854 57.8217L47.5172 41.1763C47.2955 40.9313 47.3655 40.7155 48.0598 40.0798L64.1731 25.3882C64.6281 24.9683 64.8148 24.8341 65.0715 25.1199L80.3622 41.8762C83.0458 44.7923 84.1892 48.2917 79.7788 52.3102L73.169 58.3175C68.1985 62.8492 64.9548 60.3063 62.6854 57.8217ZM78.6762 51.1904C82.1765 48.0176 81.5173 45.428 79.2071 42.9026L65.0306 27.4062C64.7389 27.0796 64.4823 27.2312 64.2431 27.4528L49.8858 40.5172C49.4774 40.8905 49.4541 41.0596 49.775 41.4096L63.8347 56.8127C65.5849 58.7316 67.7784 61.1345 71.8622 57.396L78.6762 51.1904Z" fill="#233B6C"/>
<path d="M41.0299 70.2442L67.4167 46.1684C67.8484 45.7776 68.2218 45.9001 69.3361 47.1249L95.1337 75.3825C95.8629 76.1873 96.0963 76.514 95.5945 76.9689L69.0327 101.208C63.8755 105.909 57.7791 107.915 50.7026 100.17L40.1723 88.6452C32.2149 79.8967 36.6662 74.2277 41.0299 70.2442ZM52.6978 98.3035C58.275 104.404 62.8138 103.273 67.2825 99.225L91.6392 76.9805C92.2225 76.4556 91.9367 76.0065 91.5516 75.5924L68.566 50.4026C67.9126 49.6853 67.6151 49.6503 67.0084 50.2043L42.8034 72.2564C39.4373 75.3242 35.2193 79.1793 41.7533 86.3356L52.6978 98.3035Z" fill="#233B6C"/>
<path d="M45.9304 72.4141L67.0025 53.1674C67.3292 52.8699 67.6151 52.9633 68.4668 53.8964L88.203 75.5169C88.7864 76.1001 88.938 76.38 88.5588 76.73L67.3526 96.0758C63.4088 99.6685 58.7475 101.208 53.3511 95.2767L45.277 86.4758C39.1864 79.8094 42.5934 75.4585 45.9304 72.4141ZM54.8388 93.8945C59.1034 98.5603 62.5746 97.703 65.9699 94.606L85.531 76.7591C85.9686 76.3567 85.7586 76.0126 85.4669 75.6918L67.8776 56.4452C67.3759 55.8969 67.1542 55.8619 66.7108 56.2935L47.2839 73.9538C44.717 76.2867 41.485 79.2495 46.4846 84.7261L54.8388 93.8945Z" fill="#233B6C"/>
<path d="M50.0025 74.2104L66.6583 59.0464C66.9034 58.8247 67.1134 58.8947 67.7493 59.5888L82.4508 75.6918C82.865 76.1526 82.9991 76.3334 82.7133 76.5958L65.9583 91.8532C63.0413 94.5302 59.541 95.6792 55.5156 91.2699L49.5125 84.6911C44.9795 79.7161 47.5173 76.4792 50.0025 74.2104ZM56.6357 90.1968C59.8152 93.6962 62.3996 93.0371 64.9315 90.7275C65.9466 89.7944 79.8255 77.1324 80.4614 76.5608C80.7881 76.2575 80.6306 75.9776 80.4089 75.7618L67.3117 61.4143C66.9384 61.006 66.7692 60.9827 66.4192 61.2976L51.0118 75.3594C49.0983 77.1091 46.6888 79.302 50.4284 83.3846L56.6357 90.1968Z" fill="#233B6C"/>
<path d="M37.1445 52.9924C38.4163 54.3922 61.2211 79.3778 61.2211 79.3778C61.612 79.8036 61.4953 80.1769 60.2702 81.2908L31.999 107.081C31.1998 107.81 30.8731 108.044 30.418 107.542C30.418 107.542 7.02402 81.9207 6.1781 80.9875C1.47596 75.8143 -0.542574 69.737 7.2107 62.6682L18.756 52.1351C27.4777 44.1798 33.16 48.6298 37.1445 52.9924ZM9.08339 64.6279C2.97528 70.2036 4.10706 74.747 8.1558 79.2087L30.4355 103.617C30.9606 104.2 31.404 103.92 31.824 103.529L57.0207 80.5501C57.7324 79.8969 57.7733 79.5995 57.219 78.9929L35.1318 54.7654C32.0632 51.4002 28.2128 47.1834 21.0488 53.7156L9.08339 64.6279Z" fill="#233B6C"/>
<path d="M34.9743 57.8976L54.2262 78.9581C54.5237 79.2906 54.4304 79.5705 53.497 80.4221L31.8473 100.159C31.2347 100.713 30.9839 100.888 30.6338 100.509C30.6338 100.509 11.9653 80.0196 11.2827 79.3139C7.68905 75.3654 6.14889 70.6996 12.0762 65.3164L20.9087 57.2561C27.5827 51.1496 31.929 54.5557 34.9743 57.8976ZM13.5113 66.7978C8.84416 71.0612 9.70175 74.5314 12.7996 77.9258L30.6513 97.4816C31.0539 97.919 31.3922 97.7091 31.7131 97.4174L50.965 79.8388C51.5134 79.3372 51.5484 79.1098 51.1167 78.6432L33.4166 59.2507C31.083 56.6787 28.1253 53.4476 22.6472 58.4459L13.5113 66.7978Z" fill="#233B6C"/>
<path d="M33.1775 61.9622C33.9009 62.7612 48.3748 78.6135 48.3748 78.6135C48.5965 78.8585 48.5265 79.0684 47.8323 79.71L31.7248 94.4016C31.264 94.8215 31.0773 94.9498 30.8206 94.6641L15.5299 77.9195C12.8521 75.0033 11.7028 71.5039 16.1133 67.4738L22.6939 61.4723C27.6644 56.9406 30.9081 59.4835 33.1775 61.9622ZM17.1867 68.5936C13.6864 71.7722 14.3514 74.3559 16.6558 76.8871C17.5893 77.902 30.2547 91.7829 30.8323 92.4128C31.1298 92.7336 31.3806 92.5819 31.6198 92.3603L45.9771 79.2667C46.3855 78.8935 46.4088 78.7243 46.0938 78.3744C46.0938 78.3744 32.4774 63.4611 32.0282 62.977C30.278 61.0582 28.0845 58.6495 24.0007 62.3938L17.1867 68.5936Z" fill="#233B6C"/>
<path d="M120.931 0H118.761V120H120.931V0Z" fill="#233B6C"/>
<path d="M143.999 69.9293V68.8503H145.48C147.149 68.8503 148.327 68.3196 149.027 67.2406C149.451 66.5991 149.663 65.1565 149.663 62.913V37.3208C149.663 34.8421 149.395 33.2965 148.852 32.655C148.419 32.2067 147.892 31.8594 147.309 31.6376C146.727 31.4159 146.102 31.3251 145.48 31.3718H143.999V30.2695H160.042C165.926 30.2695 170.399 30.9441 173.46 32.2933C176.584 33.6872 179.18 36.0436 180.869 39.018C182.779 42.3199 183.747 46.0819 183.669 49.8953C183.669 55.4166 182.003 60.028 178.67 63.7296C174.936 67.8666 169.242 69.9332 161.588 69.9293H143.999ZM155.246 67.0656C157.275 67.5574 159.35 67.8311 161.436 67.8822C163.533 67.9354 165.617 67.5374 167.546 66.7153C169.476 65.8932 171.206 64.6661 172.62 63.1172C175.587 59.9405 177.069 55.6324 177.065 50.1927C177.061 44.7531 175.58 40.4333 172.62 37.2333C169.66 34.0722 165.847 32.4916 161.179 32.4916C159.167 32.5298 157.166 32.8158 155.223 33.3432L155.246 67.0656Z" fill="#233B6C"/>
<path d="M212.559 30.2175C217.545 30.2175 221.87 32.0896 225.533 35.834C229.197 39.5783 231.027 44.2442 231.023 49.8316C231.023 55.6056 229.18 60.3958 225.493 64.2024C223.763 65.9954 221.691 67.424 219.4 68.4041C217.109 69.3841 214.645 69.8957 212.154 69.9088C209.662 69.9218 207.193 69.436 204.892 68.48C202.591 67.524 200.504 66.1172 198.756 64.3424C195.154 60.6252 193.354 55.8155 193.354 49.9132C193.354 43.8865 195.432 38.9679 199.59 35.1574C203.11 31.8938 207.759 30.1229 212.559 30.2175ZM212.016 32.2646C210.443 32.2144 208.879 32.5295 207.447 33.1852C206.016 33.841 204.756 34.8195 203.767 36.044C201.177 39.1817 199.88 43.7737 199.876 49.8199C199.876 56.0177 201.22 60.7885 203.907 64.1324C204.874 65.3634 206.117 66.3496 207.536 67.0113C208.955 67.6729 210.51 67.9914 212.075 67.9409C213.786 67.9743 215.482 67.6158 217.033 66.893C218.584 66.1702 219.949 65.1023 221.024 63.7708C223.357 60.9868 224.534 56.599 224.553 50.6073C224.553 44.1101 223.258 39.2653 220.668 36.0731C218.568 33.5302 215.684 32.2607 212.016 32.2646Z" fill="#233B6C"/>
<path d="M264.212 69.9412L249.353 36.5978V63.0766C249.353 65.5145 249.61 67.0309 250.118 67.6375C250.818 68.454 251.926 68.8622 253.443 68.8622H254.796V69.9412H241.413V68.8622H242.773C244.4 68.8622 245.555 68.3607 246.238 67.34C246.65 66.7218 246.856 65.3006 246.856 63.0766V37.1811C246.856 35.4236 246.662 34.158 246.273 33.3842C245.955 32.7649 245.443 32.267 244.814 31.967C243.735 31.5134 242.565 31.3139 241.396 31.3837V30.3223H252.305L266.26 61.3327L279.987 30.3223H290.873V31.4071H289.526C287.88 31.4071 286.714 31.9125 286.025 32.9235C285.634 33.5417 285.442 34.9881 285.442 37.1811V63.0766C285.442 65.5145 285.704 67.0309 286.235 67.6375C286.935 68.454 288.038 68.8622 289.555 68.8622H290.885V69.9412H274.55V68.8622H275.915C277.554 68.8622 278.715 68.3607 279.375 67.34C279.791 66.7218 279.999 65.3006 279.999 63.0766V36.5978L265.163 69.9412H264.212Z" fill="#233B6C"/>
<path d="M329.984 31.3256V30.2642H343.594V31.3256H342.148C341.447 31.3003 340.752 31.464 340.136 31.7996C339.52 32.1351 339.006 32.6302 338.647 33.2328C338.258 33.8199 338.064 35.1905 338.064 37.3446V53.0685C338.064 56.9567 337.675 59.9662 336.897 62.097C336.024 64.3704 334.44 66.3013 332.382 67.6027C330.141 69.1346 327.094 69.9006 323.24 69.9006C319.039 69.9006 315.852 69.1677 313.678 67.7018C311.541 66.2846 309.92 64.214 309.058 61.7995C308.482 60.0848 308.194 56.8984 308.194 52.2403V37.1171C308.194 34.7375 307.869 33.1823 307.22 32.4513C306.57 31.7203 305.514 31.3509 304.052 31.3431H302.605V30.2642H319.226V31.3256H317.756C316.163 31.3256 315.032 31.8272 314.349 32.8362C313.878 33.5167 313.643 34.9436 313.643 37.1171V53.9784C313.659 55.7082 313.796 57.4349 314.051 59.1458C314.211 60.7468 314.718 62.2936 315.539 63.6775C316.327 64.8248 317.398 65.749 318.649 66.3604C320.198 67.1087 321.905 67.4709 323.625 67.416C325.976 67.4548 328.297 66.8863 330.363 65.7655C332.168 64.8591 333.609 63.363 334.447 61.5254C335.178 59.8029 335.544 56.8868 335.544 52.7769V37.1171C335.544 34.6967 335.275 33.1862 334.75 32.5796C334.326 32.1419 333.811 31.8028 333.242 31.5861C332.672 31.3694 332.062 31.2805 331.454 31.3256H329.984Z" fill="#233B6C"/>
<path d="M379.146 30.1943V43.3054H378.096C377.882 41.2104 377.26 39.1775 376.264 37.3214C375.367 35.8127 374.065 34.5846 372.507 33.7754C370.963 32.9171 369.227 32.4636 367.461 32.4573C365.668 32.3866 363.918 33.0138 362.578 34.207C361.986 34.7023 361.508 35.319 361.176 36.0154C360.844 36.7118 360.665 37.4715 360.653 38.2429C360.653 39.4103 361.085 40.5364 361.866 41.4041C363.033 42.8038 365.822 44.6682 370.232 46.9973C372.798 48.2725 375.266 49.7345 377.618 51.3715C378.882 52.3332 379.917 53.562 380.651 54.97C381.349 56.3082 381.713 57.7947 381.713 59.3035C381.717 60.7113 381.417 62.1035 380.831 63.3841C380.246 64.6647 379.391 65.8035 378.324 66.7222C376.068 68.8063 373.161 69.8463 369.602 69.8425C368.549 69.8484 367.497 69.7645 366.458 69.5917C365.223 69.3239 364.005 68.9831 362.811 68.571C361.68 68.1499 360.507 67.8545 359.311 67.6903C359.106 67.6802 358.902 67.7122 358.71 67.7845C358.518 67.8567 358.344 67.9676 358.197 68.1103C357.836 68.6243 357.633 69.2324 357.613 69.86H356.563V56.8422H357.613C358.103 59.564 358.765 61.6014 359.597 62.9545C360.538 64.4027 361.858 65.5663 363.412 66.3197C365.151 67.22 367.084 67.6806 369.042 67.6612C371.403 67.6612 373.27 67.0468 374.642 65.8182C375.285 65.2863 375.802 64.6199 376.158 63.866C376.514 63.1121 376.699 62.2892 376.702 61.4556C376.688 60.4632 376.418 59.4912 375.92 58.6327C375.296 57.5821 374.452 56.6788 373.447 55.9849C372.708 55.425 370.693 54.2371 367.403 52.4213C364.972 51.1353 362.633 49.6835 360.402 48.0762C359.101 47.1085 358.012 45.8861 357.199 44.4835C356.474 43.1636 356.103 41.679 356.12 40.1734C356.114 38.8422 356.394 37.5251 356.942 36.3116C357.489 35.098 358.291 34.0163 359.293 33.1397C361.413 31.1761 364.108 30.2041 367.379 30.2235C369.622 30.2663 371.833 30.7706 373.872 31.7049C374.573 32.0665 375.331 32.3034 376.113 32.4048C376.557 32.4215 376.99 32.2646 377.32 31.9674C377.732 31.4672 377.993 30.8604 378.073 30.2177L379.146 30.1943Z" fill="#233B6C"/>
<path d="M178.78 79.7744H183.722V80.7426H179.766V83.8337H183.722V84.8019H179.766V89.6427H178.78V79.7744Z" fill="#233B6C"/>
<path d="M189.41 79.7744H190.396V89.6427H189.41V79.7744Z" fill="#233B6C"/>
<path d="M196.766 89.6427V79.7744H196.982L203.539 87.3564V79.7744H204.514V89.6427H204.286L197.799 82.1715V89.6427H196.766Z" fill="#233B6C"/>
<path d="M211.042 79.7744H216.689V80.7426H212.022V83.8337H216.642V84.8019H212.022V88.6804H216.642V89.6427H211.036L211.042 79.7744Z" fill="#233B6C"/>
<path d="M230.481 79.7744H232.441C233.192 79.7459 233.944 79.7869 234.687 79.8969C235.246 80.0143 235.748 80.3188 236.11 80.7601C236.488 81.2162 236.686 81.7953 236.665 82.3873C236.675 82.8888 236.542 83.3828 236.279 83.8104C236.021 84.2194 235.645 84.5407 235.2 84.7319C234.581 84.9682 233.92 85.0773 233.257 85.0527L236.805 89.6311H235.579L232.044 85.0527H231.461V89.6311H230.475L230.481 79.7744ZM231.467 80.7426V84.0962H233.164C233.657 84.1186 234.151 84.0555 234.623 83.9096C234.925 83.7977 235.184 83.5937 235.364 83.3263C235.539 83.0512 235.63 82.731 235.626 82.4048C235.628 82.0836 235.534 81.7691 235.358 81.5008C235.189 81.2373 234.942 81.0333 234.652 80.9176C234.182 80.7814 233.693 80.7243 233.205 80.7484L231.467 80.7426Z" fill="#233B6C"/>
<path d="M242.854 79.7744H248.501V80.7426H243.834V83.8337H248.455V84.8019H243.834V88.6804H248.455V89.6427H242.854V79.7744Z" fill="#233B6C"/>
<path d="M258.373 79.7744L262.97 89.6427H261.902L260.356 86.3999H256.115L254.58 89.6427H253.472L258.139 79.7744H258.373ZM258.244 81.8741L256.558 85.4434H259.93L258.244 81.8741Z" fill="#233B6C"/>
<path d="M268.611 79.7744H269.597V88.6921H273.389V89.6427H268.611V79.7744Z" fill="#233B6C"/>
<path d="M286.988 79.7744H292.635V80.7426H287.968V83.8337H292.588V84.8019H287.968V88.6804H292.588V89.6427H286.982L286.988 79.7744Z" fill="#233B6C"/>
<path d="M297.436 87.8113L298.277 87.3038C298.86 88.3945 299.542 88.9369 300.318 88.9369C300.644 88.9394 300.965 88.8591 301.252 88.7036C301.524 88.5611 301.751 88.3474 301.911 88.0854C302.06 87.8347 302.138 87.5486 302.139 87.2572C302.132 86.9057 302.016 86.5651 301.806 86.2832C301.323 85.6764 300.755 85.1421 300.12 84.6968C299.554 84.3123 299.036 83.8598 298.58 83.3495C298.245 82.9171 298.062 82.386 298.061 81.839C298.057 81.4295 298.164 81.0266 298.37 80.6725C298.571 80.3172 298.871 80.0277 299.233 79.8385C299.607 79.6329 300.026 79.5264 300.453 79.5294C300.91 79.527 301.359 79.6479 301.753 79.8793C302.263 80.2094 302.7 80.64 303.037 81.1449L302.232 81.7573C301.979 81.3793 301.659 81.0511 301.287 80.7891C301.03 80.6326 300.736 80.5499 300.435 80.55C300.073 80.5365 299.721 80.6665 299.455 80.9116C299.331 81.0245 299.234 81.1626 299.168 81.3165C299.103 81.4705 299.071 81.6367 299.076 81.804C299.077 82.0209 299.123 82.2353 299.21 82.4339C299.337 82.6767 299.502 82.8974 299.7 83.0871C299.828 83.2154 300.254 83.542 300.972 84.0727C301.648 84.5296 302.24 85.0998 302.722 85.7583C303.024 86.194 303.191 86.7095 303.2 87.2397C303.203 87.5907 303.132 87.9384 302.991 88.2599C302.85 88.5815 302.643 88.8698 302.384 89.106C302.124 89.3635 301.815 89.5663 301.475 89.7026C301.135 89.8388 300.772 89.9057 300.406 89.8992C299.828 89.9067 299.26 89.7401 298.778 89.421C298.209 88.9995 297.748 88.4475 297.436 87.8113Z" fill="#233B6C"/>
<path d="M308.428 80.7426V79.7744H313.83V80.7426H311.63V89.6427H310.621V80.7426H308.428Z" fill="#233B6C"/>
<path d="M322.283 79.7744L326.863 89.6427H325.813L324.261 86.3999H320.014L318.479 89.6427H317.383L322.05 79.7744H322.283ZM322.155 81.8741L320.445 85.4434H323.812L322.155 81.8741Z" fill="#233B6C"/>
<path d="M330.427 80.7426V79.7744H335.829V80.7426H333.63V89.6427H332.627V80.7426H330.427Z" fill="#233B6C"/>
<path d="M341.372 79.7744H347.019V80.7426H342.352V83.8337H346.972V84.8019H342.352V88.6804H346.972V89.6427H341.366L341.372 79.7744Z" fill="#233B6C"/>
<path d="M381.818 84.7146C381.818 85.6936 381.527 86.6506 380.982 87.4639C380.437 88.2773 379.662 88.9104 378.757 89.2828C377.851 89.6553 376.855 89.7504 375.896 89.556C374.936 89.3616 374.055 88.8864 373.366 88.1909C372.677 87.4953 372.21 86.6107 372.025 85.6494C371.839 84.6881 371.944 83.6934 372.325 82.7916C372.706 81.8898 373.347 81.1216 374.166 80.5844C374.984 80.0472 375.944 79.7654 376.924 79.7746C377.57 79.7769 378.209 79.9066 378.805 80.1563C379.401 80.4059 379.941 80.7706 380.396 81.2295C380.851 81.6883 381.21 82.2324 381.454 82.8304C381.698 83.4284 381.822 84.0687 381.818 84.7146ZM373.166 84.7146C373.147 85.2219 373.229 85.728 373.409 86.2029C373.588 86.6778 373.861 87.1119 374.212 87.4795C374.562 87.8471 374.983 88.1407 375.448 88.343C375.914 88.5453 376.416 88.6522 376.924 88.6573C379.006 88.6923 380.587 86.9076 380.587 84.7438C380.617 84.2393 380.544 83.734 380.373 83.2587C380.201 82.7834 379.934 82.3482 379.588 81.9797C379.242 81.6111 378.825 81.317 378.361 81.1152C377.898 80.9135 377.398 80.8084 376.892 80.8065C376.387 80.8045 375.886 80.9056 375.421 81.1037C374.956 81.3018 374.536 81.5926 374.188 81.9584C373.839 82.3243 373.568 82.7574 373.393 83.2313C373.217 83.7052 373.14 84.2099 373.166 84.7146ZM376.13 87.2692H375.016V82.335C375.626 82.2407 376.242 82.19 376.859 82.1834C377.436 82.1199 378.018 82.2579 378.505 82.5741C378.667 82.6965 378.798 82.8564 378.885 83.0403C378.973 83.2241 379.014 83.4264 379.006 83.6298C378.989 83.906 378.882 84.1691 378.702 84.3795C378.522 84.5899 378.279 84.7361 378.009 84.7963V84.8546C378.475 85.0062 378.709 85.397 378.86 86.056C378.92 86.4709 379.038 86.8754 379.21 87.2575H378.044C377.854 86.8797 377.726 86.4741 377.664 86.056C377.577 85.5428 377.279 85.3037 376.667 85.3037H376.136L376.13 87.2692ZM376.13 84.4988H376.661C377.274 84.4988 377.775 84.2889 377.775 83.7814C377.775 83.274 377.454 83.0232 376.748 83.0232C376.541 83.0197 376.333 83.0413 376.13 83.0874V84.4988Z" fill="#233B6C"/>
</g>
<defs>
<clipPath id="clip0">
<rect width="381.818" height="120" fill="white"/>
</clipPath>
</defs>
</svg>
