<svg xmlns="http://www.w3.org/2000/svg" viewBox="0 0 171 208.42"><defs><style>
.cls-1{fill:#d12b38;}
path {fill: #ccc;}
@media (prefers-color-scheme: dark) { path {fill: #fff;} }
</style></defs><g id="Capa_2" data-name="Capa 2"><g id="Capa_1-2" data-name="Capa 1"><path d="M66.79,34.47A69.38,69.38,0,0,1,108.45,48.3a2.42,2.42,0,0,0,3.16-.2L132.76,27a2.41,2.41,0,0,0-.2-3.57A104.2,104.2,0,0,0,1,23.38,2.42,2.42,0,0,0,.82,27L22,48.1a2.42,2.42,0,0,0,3.16.2A69.41,69.41,0,0,1,66.79,34.47Z"/><path d="M136.53,104.21A69.39,69.39,0,0,1,122.61,146a2.24,2.24,0,0,0,.19,2.94l21.38,21.38a2.23,2.23,0,0,0,3.29-.14,104.22,104.22,0,0,0,0-131.92,2.24,2.24,0,0,0-3.3-.14L122.8,59.49a2.22,2.22,0,0,0-.19,2.93A69.45,69.45,0,0,1,136.53,104.21Z"/><path d="M66.79,174A69.36,69.36,0,0,1,25,160a2.19,2.19,0,0,0-2.86.19L.64,181.64a2.16,2.16,0,0,0,.14,3.2,104.2,104.2,0,0,0,132,0,2.18,2.18,0,0,0,.14-3.21l-21.47-21.46a2.17,2.17,0,0,0-2.85-.18A69.44,69.44,0,0,1,66.79,174Z"/><circle class="cls-1" cx="66.79" cy="104.21" r="41.68"/></g></g></svg>