<svg width="111" height="110" viewBox="0 0 111 110" fill="none" xmlns="http://www.w3.org/2000/svg">
<path fill-rule="evenodd" clip-rule="evenodd" d="M23.158 88.2895V104.407C23.158 105.891 22.5688 107.313 21.52 108.362C20.4711 109.411 19.0486 110 17.5654 110H5.59266C2.50686 110 0 107.499 0 104.407V11.5785C0.00011214 9.02966 0.841228 6.55207 2.39291 4.52997C3.94458 2.50787 6.12011 1.05426 8.5821 0.394559C11.0441 -0.265138 13.655 -0.0940518 16.0098 0.881284C18.3647 1.85662 20.3319 3.5817 21.6064 5.789H98.4216C100.65 5.78888 102.831 6.43183 104.703 7.64069C106.575 8.84956 108.059 10.573 108.976 12.6041C109.893 14.6353 110.204 16.8878 109.872 19.0915C109.541 21.2952 108.58 23.3563 107.106 25.0275V70.9209C107.106 76.679 104.818 82.2011 100.747 86.2727C96.6754 90.3442 91.1532 92.6316 85.3952 92.6316H36.1844C31.2981 92.6316 26.788 91.0163 23.158 88.2895ZM13.4102 9.33605C12.8932 8.91405 12.2463 8.68362 11.579 8.68375C10.8113 8.68375 10.075 8.98873 9.53211 9.53161C8.98924 10.0745 8.68426 10.8108 8.68426 11.5785V101.316H14.4738V20.2628H98.4216C99.1893 20.2628 99.9256 19.9578 100.468 19.4149C101.011 18.872 101.316 18.1357 101.316 17.368C101.316 16.6003 101.011 15.864 100.468 15.3211C99.9256 14.7782 99.1893 14.4733 98.4216 14.4733H15.1222L14.4159 10.9996C14.2824 10.3457 13.9271 9.75806 13.4102 9.33605ZM26.9734 80.132C29.4163 82.5749 32.7296 83.9473 36.1844 83.9473H85.3952C87.1059 83.9473 88.7998 83.6104 90.3802 82.9557C91.9606 82.3011 93.3966 81.3416 94.6062 80.132C95.8159 78.9224 96.7754 77.4864 97.43 75.9059C98.0846 74.3255 98.4216 72.6316 98.4216 70.9209V28.947H23.158V70.9209C23.158 74.3757 24.5304 77.6891 26.9734 80.132ZM41.0574 52.3462C40.7076 53.1057 40.5265 53.9321 40.5266 54.7683V72.3684C40.5266 73.1361 40.8315 73.8724 41.3744 74.4153C41.9173 74.9582 42.6536 75.2632 43.4213 75.2632H53.5529C53.9368 75.2632 54.305 75.1107 54.5764 74.8392C54.8478 74.5678 55.0003 74.1996 55.0003 73.8158V66.5789C55.0003 65.8112 55.3053 65.0749 55.8482 64.532C56.391 63.9891 57.1273 63.6841 57.8951 63.6841H63.6846C64.4523 63.6841 65.1886 63.9891 65.7315 64.532C66.2743 65.0749 66.5793 65.8112 66.5793 66.5789V73.8158C66.5793 74.1996 66.7318 74.5678 67.0033 74.8392C67.2747 75.1107 67.6428 75.2632 68.0267 75.2632H78.1583C78.9261 75.2632 79.6624 74.9582 80.2052 74.4153C80.7481 73.8724 81.0531 73.1361 81.0531 72.3684V54.7683C81.053 53.9335 80.8724 53.1086 80.5237 52.3501C80.1749 51.5916 79.6662 50.9175 79.0325 50.3741L62.6714 36.3519C62.1471 35.9034 61.4798 35.657 60.7898 35.657C60.0998 35.657 59.4326 35.9034 58.9082 36.3519L42.5529 50.3683C41.9174 50.9118 41.4072 51.5866 41.0574 52.3462Z" fill="url(#paint0_linear_320_98)"/>
<defs>
<linearGradient id="paint0_linear_320_98" x1="66.3341" y1="8.25045" x2="112.322" y2="19.9377" gradientUnits="userSpaceOnUse">
<stop stop-color="#0E1F40"/>
<stop offset="1" stop-color="#D12B38"/>
</linearGradient>
</defs>
</svg>
