<svg width="110" height="110" viewBox="0 0 110 110" fill="none" xmlns="http://www.w3.org/2000/svg">
<path d="M104.762 26.1905V65.4762H94.2857V31.4286L68.0952 13.0952L41.9048 31.4286V39.2857H31.4286V26.1905L68.0952 0L104.762 26.1905ZM75.9524 28.8095H70.7143V34.0476H75.9524V28.8095ZM65.4762 28.8095H60.2381V34.0476H65.4762V28.8095ZM75.9524 39.2857H70.7143V44.5238H75.9524V39.2857ZM65.4762 39.2857H60.2381V44.5238H65.4762V39.2857ZM94.2857 75.9524H83.8095C83.8095 69.6667 79.881 64.0095 74.0143 61.8095L41.7476 49.7619H0V107.381H31.4286V99.8381L68.0952 110L110 96.9048V91.6667C110 82.9714 102.981 75.9524 94.2857 75.9524ZM10.4762 96.9048V60.2381H20.9524V96.9048H10.4762ZM67.9381 99.0524L31.4286 88.9429V60.2381H39.8619L70.3476 71.6048C72.1286 72.2857 73.3333 74.0143 73.3333 75.9524C73.3333 75.9524 62.9095 75.6905 61.2857 75.1667L48.819 71.0286L45.519 80.9809L57.9857 85.119C60.6571 86.0095 63.4333 86.481 66.2619 86.481H94.2857C96.3286 86.481 98.1619 87.6857 99 89.4143L67.9381 99.0524Z" fill="url(#paint0_linear_320_93)"/>
<defs>
<linearGradient id="paint0_linear_320_93" x1="66.3333" y1="8.25044" x2="112.321" y2="19.9375" gradientUnits="userSpaceOnUse">
<stop stop-color="#0E1F40"/>
<stop offset="1" stop-color="#D12B38"/>
</linearGradient>
</defs>
</svg>
