<svg width="111" height="112" viewBox="0 0 111 112" fill="none" xmlns="http://www.w3.org/2000/svg">
<path fill-rule="evenodd" clip-rule="evenodd" d="M34.7456 36.0522H12.3248C12.2969 36.0525 12.2691 36.0525 12.2412 36.0522H9.78631C8.31528 36.0522 6.90451 35.4679 5.86434 34.4277C4.82417 33.3875 4.23981 31.9768 4.23981 30.5058V5.5465C4.23981 4.07548 4.82417 2.6647 5.86434 1.62453C6.90451 0.584361 8.31528 0 9.78631 0C11.2573 0 12.6681 0.584361 13.7083 1.62453C14.7484 2.6647 15.3328 4.07548 15.3328 5.5465V17.2287C20.6389 11.6529 27.0821 7.20734 34.282 4.22569C45.5587 -0.444231 58.0614 -1.26211 69.8504 1.89894C81.6394 5.06 92.0557 12.0233 99.4833 21.7085C106.911 31.3937 110.935 43.2594 110.93 55.4649C110.93 56.9359 110.346 58.3467 109.306 59.3869C108.265 60.427 106.855 61.0114 105.384 61.0114C103.913 61.0114 102.502 60.427 101.462 59.3869C100.421 58.3467 99.8371 56.9359 99.8371 55.4649C99.8413 45.7005 96.6226 36.2077 90.6804 28.4596C84.7381 20.7114 76.4047 15.1412 66.9732 12.6133C57.5417 10.0854 47.5395 10.7411 38.5188 14.4787C32.727 16.8785 27.5478 20.4625 23.2905 24.9593H34.7456C36.2166 24.9593 37.6274 25.5436 38.6675 26.5838C39.7077 27.624 40.2921 29.0347 40.2921 30.5058C40.2921 31.9768 39.7077 33.3875 38.6675 34.4277C37.6274 35.4679 36.2166 36.0522 34.7456 36.0522ZM99.1438 110.93C97.6728 110.93 96.262 110.346 95.2218 109.305C94.1817 108.265 93.5973 106.854 93.5973 105.383V95.7487C90.4468 98.7357 86.9444 101.356 83.1538 103.547C74.735 108.411 65.1883 110.985 55.465 111.012C40.7602 110.994 26.6627 105.145 16.2648 94.7467C5.86689 84.3488 0.0176141 70.2513 0 55.5465C0 54.0755 0.584361 52.6647 1.62453 51.6245C2.6647 50.5844 4.07548 50 5.5465 50C7.01752 50 8.4283 50.5844 9.46847 51.6245C10.5086 52.6647 11.093 54.0755 11.093 55.5465C11.0888 65.3109 14.3075 74.8037 20.2498 82.5518C26.192 90.2999 34.5254 95.8702 43.9569 98.3981C53.3884 100.926 63.3906 100.27 72.4113 96.5327C78.238 94.1185 83.4448 90.5056 87.7166 85.9706H74.1846C72.7135 85.9706 71.3028 85.3863 70.2626 84.3461C69.2224 83.3059 68.6381 81.8952 68.6381 80.4241C68.6381 78.9531 69.2224 77.5423 70.2626 76.5022C71.3028 75.462 72.7135 74.8776 74.1846 74.8776H99.1438C100.615 74.8776 102.026 75.462 103.066 76.5022C104.106 77.5423 104.69 78.9531 104.69 80.4241V105.383C104.69 106.854 104.106 108.265 103.066 109.305C102.026 110.346 100.615 110.93 99.1438 110.93Z" fill="url(#paint0_linear)"/>
<defs>
<linearGradient id="paint0_linear" x1="-1.48133e-07" y1="50" x2="62.1838" y2="139.934" gradientUnits="userSpaceOnUse">
<stop stop-color="#0E1F40"/>
<stop offset="1" stop-color="#D12B38"/>
</linearGradient>
</defs>
</svg>
