<svg width="35" height="35" viewBox="0 0 35 35" fill="none" xmlns="http://www.w3.org/2000/svg">
<path fill-rule="evenodd" clip-rule="evenodd" d="M25.5191 20.9738C25.0824 20.7565 22.9415 19.7094 22.543 19.5636C22.1444 19.4192 21.8542 19.3477 21.5626 19.7823C21.2725 20.214 20.4387 21.1911 20.1852 21.4798C19.9302 21.77 19.6767 21.805 19.2415 21.5892C18.8063 21.3704 17.4025 20.914 15.7393 19.4382C14.4454 18.289 13.5706 16.87 13.3171 16.4354C13.0636 16.0023 13.2893 15.7675 13.5076 15.5517C13.704 15.3577 13.9428 15.0457 14.1612 14.7934C14.3795 14.5396 14.4513 14.3588 14.5964 14.0686C14.7429 13.7798 14.6696 13.5275 14.5597 13.3102C14.4513 13.093 13.5809 10.9594 13.2175 10.0917C12.8643 9.24734 12.5053 9.36254 12.2386 9.34796C11.9836 9.33629 11.6935 9.33338 11.4034 9.33338C11.1132 9.33338 10.6414 9.44129 10.2428 9.87588C9.84276 10.309 8.71884 11.3575 8.71884 13.4911C8.71884 15.6232 10.278 17.6838 10.4963 17.974C10.7146 18.2627 13.5662 22.6406 17.9344 24.5175C18.9748 24.9638 19.7852 25.2306 20.4167 25.429C21.4601 25.76 22.4096 25.7133 23.1599 25.6011C23.9951 25.4771 25.736 24.5525 26.0994 23.5404C26.4613 22.5284 26.4613 21.6606 26.3529 21.4798C26.2444 21.299 25.9543 21.1911 25.5176 20.9738H25.5191ZM17.574 31.7698H17.5681C14.9736 31.7703 12.4267 31.0762 10.1944 29.7602L9.66692 29.4481L4.18358 30.8802L5.64746 25.5602L5.30311 25.0148C3.85261 22.717 3.085 20.0576 3.08896 17.344C3.09189 9.39609 9.58926 2.92985 17.5798 2.92985C21.4483 2.92985 25.0854 4.43193 27.8197 7.15609C29.1684 8.49277 30.2373 10.0823 30.9647 11.8328C31.6922 13.5833 32.0636 15.4599 32.0575 17.3542C32.0546 25.3021 25.5572 31.7698 17.574 31.7698ZM29.9005 5.08672C28.286 3.46932 26.3649 2.18688 24.2488 1.31372C22.1326 0.440569 19.8633 -0.00594452 17.5725 5.97588e-05C7.96858 5.97588e-05 0.149466 7.78025 0.146535 17.3425C0.14507 20.3992 0.946617 23.3829 2.47205 26.0123L0 35L9.23757 32.5879C11.793 33.9735 14.6566 34.6995 17.5666 34.6996H17.574C27.1779 34.6996 34.997 26.9194 34.9999 17.3557C35.007 15.0767 34.56 12.8189 33.6847 10.713C32.8094 8.60708 31.5232 6.69478 29.9005 5.08672Z" fill="url(#paint0_linear)"/>
<defs>
<linearGradient id="paint0_linear" x1="0.0182191" y1="1.34854e-06" x2="42.0035" y2="16.8234" gradientUnits="userSpaceOnUse">
<stop stop-color="#0E1F40"/>
<stop offset="1" stop-color="#E21C34"/>
</linearGradient>
</defs>
</svg>
