<svg width="99" height="69" viewBox="0 0 99 69" fill="none" xmlns="http://www.w3.org/2000/svg">
<path d="M28.5654 31.2354H46.0068V41.4248H28.5654V61.2988H17.7334V41.4248H0.200195V31.2354H17.7334V12.6465H28.5654V31.2354ZM96.5869 18.7969C96.5869 22.071 95.7454 24.9932 94.0625 27.5635C92.3796 30.1032 90.0846 32.1074 87.1777 33.5762C90.666 35.1979 93.3434 37.4163 95.21 40.2314C97.1071 43.0465 98.0557 46.2288 98.0557 49.7783C98.0557 55.6533 96.0667 60.3197 92.0889 63.7773C88.111 67.2044 82.8174 68.918 76.208 68.918C69.568 68.918 64.2438 67.1891 60.2354 63.7314C56.2575 60.2738 54.2686 55.6227 54.2686 49.7783C54.2686 46.1982 55.2171 42.9854 57.1143 40.1396C59.0114 37.2939 61.6735 35.1061 65.1006 33.5762C62.2243 32.1074 59.9447 30.1032 58.2617 27.5635C56.6094 24.9932 55.7832 22.071 55.7832 18.7969C55.7832 13.1055 57.6191 8.59212 61.291 5.25684C64.9629 1.92155 69.9199 0.253906 76.1621 0.253906C82.4349 0.253906 87.4072 1.92155 91.0791 5.25684C94.751 8.59212 96.5869 13.1055 96.5869 18.7969ZM86.9023 49.2275C86.9023 45.9229 85.9079 43.2607 83.9189 41.2412C81.9606 39.1911 79.3597 38.166 76.1162 38.166C72.8727 38.166 70.2718 39.1758 68.3135 41.1953C66.3857 43.2148 65.4219 45.8923 65.4219 49.2275C65.4219 52.5016 66.3704 55.1178 68.2676 57.0762C70.1953 59.0345 72.8421 60.0137 76.208 60.0137C79.5739 60.0137 82.1901 59.0651 84.0566 57.168C85.9538 55.2708 86.9023 52.624 86.9023 49.2275ZM85.4795 19.21C85.4795 16.3031 84.638 13.9163 82.9551 12.0498C81.2721 10.1527 79.0078 9.2041 76.1621 9.2041C73.3164 9.2041 71.0674 10.1068 69.415 11.9121C67.7627 13.6868 66.9365 16.1195 66.9365 19.21C66.9365 22.2699 67.7627 24.7025 69.415 26.5078C71.098 28.3132 73.3623 29.2158 76.208 29.2158C79.0537 29.2158 81.3027 28.3132 82.9551 26.5078C84.638 24.7025 85.4795 22.2699 85.4795 19.21Z" fill="url(#paint0_linear_320_130)"/>
<defs>
<linearGradient id="paint0_linear_320_130" x1="60.9212" y1="-10.7496" x2="105.429" y2="0.150178" gradientUnits="userSpaceOnUse">
<stop stop-color="#0E1F40"/>
<stop offset="1" stop-color="#D12B38"/>
</linearGradient>
</defs>
</svg>
