<svg width="71" height="110" viewBox="0 0 71 110" fill="none" xmlns="http://www.w3.org/2000/svg">
<path d="M62.8571 0H7.85714C5.7733 0 3.77481 0.827803 2.30131 2.3013C0.827805 3.7748 0 5.7733 0 7.85714V102.143C0 104.227 0.827805 106.225 2.30131 107.699C3.77481 109.172 5.7733 110 7.85714 110H62.8571C64.941 110 66.9395 109.172 68.413 107.699C69.8865 106.225 70.7143 104.227 70.7143 102.143V7.85714C70.7143 5.7733 69.8865 3.7748 68.413 2.3013C66.9395 0.827803 64.941 0 62.8571 0ZM7.85714 7.85714H62.8571V78.5714H7.85714V7.85714ZM7.85714 102.143V86.4286H62.8571V102.143H7.85714Z" fill="url(#paint0_linear_320_100)"/>
<defs>
<linearGradient id="paint0_linear_320_100" x1="42.6428" y1="8.25045" x2="73.2974" y2="13.2586" gradientUnits="userSpaceOnUse">
<stop stop-color="#0E1F40"/>
<stop offset="1" stop-color="#D12B38"/>
</linearGradient>
</defs>
</svg>
