<svg width="71" height="70" viewBox="0 0 71 70" fill="none" xmlns="http://www.w3.org/2000/svg">
<path d="M49.2414 30.1956C50.9052 30.1956 52.2541 28.8468 52.2541 27.1829C52.2541 25.519 50.9052 24.1702 49.2414 24.1702C47.5775 24.1702 46.2286 25.519 46.2286 27.1829C46.2286 28.8468 47.5775 30.1956 49.2414 30.1956Z" fill="url(#paint0_linear_615_34)"/>
<path d="M48.6822 42.0859C48.6171 41.2926 48.5044 40.495 48.318 39.719C48.1836 39.1555 48.0016 38.605 47.7762 38.0718C47.4771 37.3565 47.1736 36.6543 46.7705 35.9911C46.3717 35.3322 45.9035 34.7166 45.4093 34.1271C45.0496 33.6936 44.6551 33.2861 44.2303 32.909C43.8661 32.5882 43.4803 32.2934 43.0945 31.9987C42.8735 31.8296 42.6437 31.6692 42.4096 31.5175C41.9328 31.2054 41.43 30.9323 40.9098 30.6982C40.2032 30.3774 39.4793 30.0827 38.7293 29.8703C37.9577 29.6535 37.1645 29.5408 36.3669 29.4454C34.971 29.2807 33.5449 29.4021 32.1707 29.6795C31.6029 29.7966 31.0393 29.9569 30.4975 30.1607C29.7735 30.4294 29.0583 30.7372 28.3821 31.1144C27.7058 31.4915 27.0946 31.951 26.4834 32.4235C26.0369 32.7703 25.6164 33.1474 25.222 33.5592C24.6974 34.1097 24.2206 34.7166 23.7828 35.3408C23.4533 35.8047 23.1629 36.2945 22.9071 36.806C22.6904 37.2438 22.4997 37.7033 22.3133 38.1585C22.2049 38.4229 22.1095 38.6873 22.0228 38.9561C21.8451 39.5153 21.7107 40.0832 21.624 40.664C21.5027 41.4486 21.4073 42.2332 21.4073 43.0265C21.4073 43.0915 21.4073 43.1566 21.4073 43.2216C21.4203 43.9672 21.5157 44.7084 21.6327 45.4497C21.7237 46.0219 21.8581 46.5854 22.0358 47.1403C22.1225 47.4134 22.2222 47.6865 22.3349 47.9509C22.5213 48.4061 22.7077 48.8612 22.9332 49.299C23.1889 49.8019 23.4793 50.2874 23.8045 50.7469C24.2466 51.3711 24.7278 51.9823 25.261 52.5328C25.7985 53.0877 26.3967 53.5645 27.0079 54.0327C28.0786 54.852 29.288 55.4459 30.5495 55.9097C31.0913 56.1091 31.6462 56.2651 32.2141 56.3779C32.7126 56.4776 33.2198 56.5426 33.7226 56.6033C34.0217 56.6379 34.3208 56.664 34.6199 56.6726C35.2225 56.6943 35.8293 56.6726 36.4275 56.5989C37.2208 56.5036 38.0054 56.3909 38.7727 56.1698C39.5226 55.9574 40.2509 55.6583 40.9618 55.3332C41.4733 55.0991 41.9718 54.8216 42.4443 54.5139C43.0859 54.0934 43.7014 53.6166 44.2693 53.105C44.6898 52.7279 45.0842 52.3161 45.444 51.8826C45.9295 51.2931 46.3934 50.6819 46.7878 50.0273C47.191 49.3597 47.4987 48.6488 47.7935 47.9292C48.318 46.6505 48.5738 45.2806 48.6778 43.9065C48.7342 43.2953 48.7342 42.6884 48.6822 42.0859ZM43.7274 43.8501C43.6971 44.0712 43.6667 44.2923 43.6364 44.5134C43.6494 44.405 43.6624 44.2966 43.6754 44.1883C43.5497 44.9425 43.3503 45.6838 43.0729 46.3947C43.1205 46.295 43.1639 46.1953 43.2029 46.0956C43.1205 46.295 43.0339 46.4944 42.9515 46.6895C42.9948 46.5898 43.0339 46.4901 43.0729 46.3904C42.7608 47.0709 42.3836 47.7168 41.9458 48.3194C42.0108 48.237 42.0802 48.1546 42.1409 48.0723C42.0108 48.2413 41.8808 48.4104 41.7507 48.5751C41.8158 48.4884 41.8808 48.4061 41.9415 48.3194C41.469 48.8959 40.9401 49.4248 40.3636 49.8973C40.4503 49.8322 40.537 49.7715 40.6193 49.7065C40.4503 49.8366 40.2812 49.9666 40.1165 50.0967C40.1989 50.0316 40.2812 49.9666 40.3636 49.9016C39.7567 50.3394 39.1108 50.7209 38.4302 51.0286C38.5299 50.9896 38.6296 50.9506 38.7293 50.9073C38.5299 50.9896 38.3305 51.0763 38.1355 51.1587C38.2352 51.1153 38.3349 51.072 38.4302 51.0286C37.7193 51.3017 36.9824 51.5055 36.2325 51.6269C36.3365 51.6182 36.4449 51.6052 36.5489 51.5878C36.3278 51.6182 36.1068 51.6485 35.8857 51.6789C35.9984 51.6615 36.1154 51.6442 36.2281 51.6269C35.4479 51.7092 34.6633 51.7092 33.8873 51.6269C34 51.6442 34.1171 51.6615 34.2298 51.6789C34.0087 51.6485 33.7876 51.6182 33.5665 51.5878C33.6749 51.6009 33.7789 51.6139 33.8873 51.6269C33.1374 51.5011 32.3961 51.3017 31.6852 51.0243C31.7849 51.0677 31.8846 51.1153 31.9843 51.1544C31.7849 51.072 31.5855 50.9853 31.3904 50.9029C31.4901 50.9463 31.5898 50.9853 31.6895 51.0243C31.009 50.7122 30.3588 50.3351 29.7562 49.8929C29.8386 49.9623 29.9209 50.0273 30.0076 50.0923C29.8386 49.9623 29.6695 49.8322 29.5048 49.7022C29.5871 49.7672 29.6738 49.8279 29.7562 49.8929C29.1797 49.4204 28.6552 48.8916 28.1827 48.3194C28.2477 48.4061 28.3084 48.4928 28.3734 48.5751C28.2433 48.4061 28.1133 48.237 27.9833 48.0723C28.0483 48.1546 28.1133 48.237 28.1783 48.3194C27.7405 47.7168 27.3634 47.0709 27.0556 46.3947C27.0946 46.4901 27.1336 46.5898 27.1726 46.6851C27.0903 46.4857 27.0036 46.2907 26.9212 46.0913C26.9646 46.1953 27.0079 46.295 27.0556 46.3947C26.7782 45.6838 26.5788 44.9469 26.4531 44.1926C26.4617 44.2966 26.4747 44.4007 26.4877 44.5047C26.4574 44.2836 26.427 44.0625 26.401 43.8415C26.4184 43.9585 26.4357 44.0756 26.4531 44.1883C26.414 43.7981 26.3924 43.4036 26.3924 43.0135C26.3924 42.9788 26.3924 42.9442 26.3924 42.9095C26.3967 42.5497 26.414 42.1942 26.4531 41.8344C26.4314 41.9515 26.414 42.0642 26.401 42.1812C26.4314 41.9601 26.4617 41.7391 26.4877 41.518C26.4747 41.622 26.4617 41.7261 26.4531 41.8301C26.5788 41.0758 26.7825 40.3389 27.0556 39.628C27.0079 39.7277 26.9646 39.8317 26.9212 39.9314C27.0036 39.732 27.0903 39.5326 27.1726 39.3376C27.1336 39.4329 27.0946 39.5326 27.0556 39.628C27.3677 38.9474 27.7448 38.3059 28.1827 37.699C28.1133 37.7814 28.0483 37.8637 27.9833 37.9504C28.1133 37.7814 28.2433 37.6123 28.3734 37.4476C28.3084 37.5299 28.2477 37.6166 28.1827 37.699C28.6552 37.1268 29.1797 36.5979 29.7519 36.1298C29.6652 36.1905 29.5828 36.2555 29.5005 36.3205C29.6695 36.1905 29.8386 36.0604 30.0033 35.9304C29.9166 35.9954 29.8342 36.0604 29.7519 36.1298C30.3544 35.692 31.0003 35.3148 31.6809 35.0027C31.5855 35.0417 31.4858 35.0807 31.3904 35.1198C31.5898 35.0374 31.7893 34.9507 31.9843 34.8683C31.8803 34.9117 31.7806 34.955 31.6809 35.0027C32.3961 34.7253 33.1331 34.5259 33.8917 34.4002C33.7833 34.4088 33.6792 34.4218 33.5709 34.4392C33.792 34.4088 34.013 34.3785 34.2341 34.3525C34.1214 34.3698 34.0044 34.3872 33.8917 34.4045C34.6676 34.3221 35.4522 34.3221 36.2281 34.4045C36.1154 34.3872 36.0027 34.3698 35.8857 34.3525C36.1068 34.3828 36.3278 34.4132 36.5489 34.4392C36.4405 34.4262 36.3365 34.4132 36.2281 34.4002C36.9824 34.5259 37.7193 34.7253 38.4346 35.0027C38.3349 34.955 38.2352 34.9117 38.1311 34.8683C38.3305 34.9507 38.5299 35.0374 38.725 35.1198C38.6296 35.0807 38.5299 35.0374 38.4302 35.0027C39.1065 35.3148 39.7524 35.692 40.3549 36.1298C40.2726 36.0647 40.1902 35.9954 40.1078 35.9347C40.2769 36.0647 40.4459 36.1948 40.6107 36.3248C40.524 36.2598 40.4416 36.1948 40.3549 36.1341C40.9314 36.6066 41.4603 37.1311 41.9285 37.7077C41.8678 37.621 41.8028 37.5386 41.7377 37.4562C41.8678 37.6253 41.9978 37.7944 42.1279 37.9591C42.0628 37.8724 41.9978 37.79 41.9285 37.7077C42.3706 38.3145 42.7478 38.9604 43.0599 39.641C43.0208 39.5413 42.9818 39.4416 42.9385 39.3419C43.0208 39.5413 43.1075 39.7407 43.1899 39.9358C43.1466 39.8361 43.1032 39.7364 43.0599 39.6367C43.3373 40.3519 43.5367 41.0888 43.6624 41.8431C43.6537 41.7347 43.6407 41.6264 43.6234 41.518C43.6537 41.7391 43.6841 41.9601 43.7144 42.1812C43.6971 42.0685 43.6841 41.9558 43.6624 41.8474C43.7404 42.619 43.7404 43.3993 43.6624 44.1709C43.6927 44.0756 43.7101 43.9628 43.7274 43.8501Z" fill="url(#paint1_linear_615_34)"/>
<path d="M70.0486 25.6352C69.8362 24.985 69.4547 24.5472 68.9042 24.144C67.8075 23.3508 66.7108 22.5575 65.6141 21.7642C63.0001 19.8699 60.3862 17.9799 57.7767 16.0855C54.6166 13.7967 51.4608 11.5123 48.3007 9.22348C45.5697 7.24679 42.8388 5.2701 40.1078 3.28907C38.777 2.32674 37.4636 1.32105 36.1111 0.393395C36.0937 0.38039 36.0764 0.367386 36.0591 0.354381C35.4088 -0.113782 34.1907 -0.122452 33.5449 0.354381C32.4655 1.14766 31.3904 1.94094 30.3111 2.73421C27.7405 4.62421 25.1743 6.51854 22.6037 8.40853C19.4956 10.6973 16.3918 12.9818 13.2881 15.2663C10.5918 17.2516 7.89121 19.2413 5.19493 21.2267C3.89448 22.1847 2.58969 23.1383 1.29357 24.1007C1.27623 24.1137 1.25889 24.1267 1.24155 24.1397C0.691025 24.5428 0.266209 24.9633 0.0841457 25.6352C-0.0805786 26.2334 -0.00688614 27.0267 0.335567 27.5556C0.67802 28.0887 1.18953 28.5569 1.82676 28.7C2.4423 28.8387 3.21824 28.8387 3.74709 28.4485C4.8048 27.6683 5.8625 26.8923 6.91587 26.1164V65.6415C6.91587 66.2398 6.91153 66.8336 6.91587 67.4275C6.91587 67.4535 6.91587 67.4795 6.91587 67.5055C6.91587 68.8537 8.05593 69.9981 9.40841 69.9981H58.6436C59.3069 69.9981 59.9744 70.0024 60.6377 69.9981C60.668 69.9981 60.694 69.9981 60.7244 69.9981C62.0725 69.9981 63.2169 68.8537 63.2169 67.5055V26.1597C64.2486 26.9183 65.276 27.6856 66.3337 28.4095C66.351 28.4225 66.3683 28.4355 66.3857 28.4485C66.8798 28.804 67.7425 28.856 68.306 28.7C68.8825 28.5396 69.5111 28.0931 69.7972 27.5556C70.105 26.9747 70.2567 26.2768 70.0486 25.6352ZM58.2318 65.013H11.9009V23.4418C11.9009 23.108 11.9009 22.7742 11.9009 22.4448C12.8286 21.7599 13.7563 21.0793 14.6883 20.3944C17.792 18.1099 20.9001 15.8211 24.0038 13.5367C26.7001 11.5513 29.4007 9.56594 32.097 7.57624C33.003 6.91301 33.9176 6.25845 34.8193 5.59088C35.4869 6.07638 36.1588 6.56189 36.8263 7.04305C39.4402 8.93738 42.0542 10.8274 44.6681 12.7217C47.8238 15.0105 50.9839 17.295 54.1441 19.5838C55.5052 20.5721 56.8707 21.5605 58.2318 22.5445V65.013V65.013Z" fill="url(#paint2_linear_615_34)"/>
<defs>
<linearGradient id="paint0_linear_615_34" x1="49.2414" y1="24.1702" x2="49.2414" y2="30.1956" gradientUnits="userSpaceOnUse">
<stop stop-color="#0E1F40"/>
<stop offset="1" stop-color="#E21C34"/>
</linearGradient>
<linearGradient id="paint1_linear_615_34" x1="35.064" y1="29.3708" x2="35.064" y2="56.6806" gradientUnits="userSpaceOnUse">
<stop stop-color="#0E1F40"/>
<stop offset="1" stop-color="#E21C34"/>
</linearGradient>
<linearGradient id="paint2_linear_615_34" x1="35.0723" y1="0" x2="35.0723" y2="70" gradientUnits="userSpaceOnUse">
<stop stop-color="#0E1F40"/>
<stop offset="1" stop-color="#E21C34"/>
</linearGradient>
</defs>
</svg>
