<svg width="71" height="70" viewBox="0 0 71 70" fill="none" xmlns="http://www.w3.org/2000/svg">
<path d="M69.9348 20.2901C69.8384 19.0518 69.6468 17.8228 69.3615 16.614C69.1304 15.6601 68.8255 14.7257 68.4494 13.8192C67.988 12.7075 67.4959 11.6219 66.8711 10.5914C66.2416 9.57311 65.5373 8.60308 64.7638 7.68937C64.1502 6.9511 63.4817 6.26034 62.7638 5.62301C61.1552 4.19627 59.3583 2.95492 57.395 2.0695C56.2934 1.57201 55.1694 1.1219 54.0038 0.796754C52.8015 0.46154 51.5756 0.269651 50.3354 0.125141C48.0777 -0.137818 45.7822 0.0291966 43.5589 0.480492C42.5925 0.676198 41.6429 0.947492 40.719 1.29187C39.5888 1.70506 38.4913 2.20257 37.4356 2.7802C36.3826 3.36653 35.4219 4.06598 34.469 4.80333C33.7116 5.3908 32.9989 6.03379 32.3369 6.72696C31.5225 7.59181 30.7728 8.51545 30.094 9.4904C29.5378 10.2787 29.0428 11.1085 28.6134 11.9725C27.635 13.9388 26.8959 16.0342 26.5642 18.2089C26.3783 19.4248 26.242 20.6419 26.2403 21.8726V21.8886C26.2403 23.153 26.3824 24.4068 26.5802 25.6553C26.7342 26.6261 26.9641 27.5834 27.2678 28.5182C27.6451 29.6722 28.1099 30.7956 28.6584 31.8787C29.0891 32.7329 29.5841 33.5531 30.1391 34.3324C30.325 34.593 30.5149 34.8514 30.7088 35.1076L30.0384 35.7686L28.7556 37.0514L27.2033 38.6055L25.4265 40.3822L23.465 42.3438L21.3631 44.4451C20.6267 45.1814 19.8903 45.9178 19.154 46.6542L16.9034 48.9047L14.641 51.1677L12.4106 53.3975L10.2566 55.5515L8.21747 57.5907L6.33589 59.4722L4.6687 61.1388L3.25026 62.5602L2.12499 63.6855L1.33315 64.4774L0.918571 64.8919L0.867637 64.9423C0.584489 65.2018 0.373491 65.5303 0.25525 65.8958C0.0871619 66.2526 0 66.6421 0 67.0365C0 67.4309 0.0871619 67.8204 0.25525 68.1772C0.373361 68.5425 0.584387 68.8709 0.867637 69.1301C1.43205 69.6483 2.17059 70.0333 2.96125 69.9977L3.74894 69.8917C4.24316 69.7555 4.69342 69.493 5.05544 69.1301L5.26925 68.9163L5.88223 68.3039C6.20678 67.9785 6.53153 67.6538 6.85648 67.3296L8.1387 66.0468L9.69099 64.4928L11.4677 62.716L13.4293 60.7539L15.5306 58.652L17.7397 56.4429C18.4899 55.6927 19.2401 54.9425 19.9902 54.1923L22.2532 51.9299L24.4831 49.6995L26.6371 47.5455L28.6726 45.5105L30.5542 43.6283L32.2208 41.9618C32.6946 41.488 33.1674 41.0151 33.6393 40.5433L34.7645 39.418L34.8925 39.2901L35.1033 39.4518C36.8303 40.7743 38.7676 41.7556 40.8061 42.5037C41.7267 42.8401 42.6723 43.1041 43.6341 43.2931C44.8675 43.5412 46.1184 43.6924 47.3753 43.7456C48.3981 43.7859 49.4224 43.7439 50.4385 43.6201C51.668 43.4696 52.8839 43.2777 54.0772 42.9396C55.2475 42.6079 56.3811 42.1525 57.4862 41.6461C58.3573 41.2471 59.1968 40.7824 59.9974 40.2561C61.7925 39.0751 63.4585 37.6543 64.8266 35.9919C65.5817 35.0757 66.2972 34.1192 66.909 33.0999C67.5338 32.0605 68.0271 30.9642 68.4873 29.8425C69.3342 27.7797 69.7731 25.5783 69.9454 23.3603C70.0238 22.3383 70.0202 21.3116 69.9348 20.2901ZM64.0164 23.6156C63.9813 23.8782 63.9461 24.1405 63.911 24.4027C63.9276 24.2754 63.9436 24.148 63.9572 24.0207C63.7404 25.4081 63.3701 26.7672 62.8532 28.0729C62.9053 27.9574 62.9557 27.8419 63.0048 27.7252L62.7087 28.433C62.7591 28.3145 62.8076 28.1961 62.8556 28.0729C62.293 29.3326 61.5952 30.5275 60.7744 31.6364C60.855 31.5381 60.9331 31.4392 61.0113 31.3403L60.5482 31.9397C60.6252 31.8396 60.7016 31.7389 60.7756 31.637C59.9163 32.7037 58.9449 33.675 57.8783 34.5343C57.981 34.4593 58.0824 34.3829 58.1827 34.3051L57.5834 34.7683C57.6823 34.6913 57.7806 34.6137 57.8795 34.5314C56.7723 35.351 55.5792 36.0476 54.3212 36.609C54.4397 36.5622 54.5581 36.5136 54.6766 36.4639L53.9695 36.76C54.0879 36.7103 54.2064 36.6593 54.3207 36.6066C53.0182 37.1229 51.6626 37.4933 50.2785 37.7112C50.4017 37.6975 50.5243 37.6821 50.6469 37.6662L49.8598 37.7722C49.9996 37.7532 50.1392 37.7335 50.2785 37.7129C48.8457 37.874 47.3992 37.874 45.9664 37.7129C46.1057 37.7347 46.2453 37.7544 46.3851 37.7722L45.598 37.6662C45.7206 37.6821 45.8432 37.6975 45.9664 37.7112C44.5824 37.4933 43.2267 37.1229 41.9243 36.6066C42.0403 36.6595 42.1574 36.7107 42.2755 36.76L41.5683 36.4639C41.6868 36.5136 41.8052 36.562 41.9237 36.609C40.6651 36.0487 39.4713 35.3532 38.363 34.5349C38.4602 34.6139 38.5589 34.6915 38.6592 34.7677L38.0598 34.3045C38.1609 34.3835 38.2628 34.4603 38.3654 34.5349C37.3008 33.6772 36.3309 32.7081 35.4723 31.6441C35.5453 31.7429 35.6193 31.8416 35.6944 31.9403L35.2312 31.3409C35.3106 31.4434 35.3905 31.5447 35.4723 31.6453C34.6492 30.5341 33.9496 29.3367 33.3858 28.0741C33.4337 28.1925 33.4823 28.3145 33.5326 28.4341L33.2365 27.7264C33.2857 27.8449 33.336 27.9586 33.3881 28.0741C32.8726 26.7706 32.5026 25.4142 32.2848 24.0296C32.299 24.1545 32.3138 24.2795 32.3304 24.4039C32.2956 24.1413 32.2605 23.8789 32.225 23.6168C32.2435 23.755 32.2633 23.8932 32.2842 24.0314C32.1231 22.603 32.1231 21.1611 32.2842 19.7328C32.2629 19.8694 32.2431 20.0066 32.225 20.1444C32.2597 19.8822 32.2948 19.6197 32.3304 19.3567C32.3138 19.4819 32.2986 19.6072 32.2848 19.7328C32.5017 18.3452 32.8717 16.986 33.3881 15.68C33.3352 15.7961 33.2841 15.9132 33.2347 16.0312L33.5309 15.3241C33.4811 15.4425 33.4328 15.561 33.3858 15.6794C33.9499 14.4167 34.6499 13.2192 35.4735 12.1082C35.3909 12.21 35.3096 12.3129 35.2294 12.4167L35.6926 11.8174C35.6186 11.9133 35.5451 12.0104 35.4735 12.1082C36.329 11.0486 37.2949 10.0832 38.3548 9.22804C38.2553 9.30108 38.1565 9.37551 38.0586 9.45132C38.2588 9.29733 38.4586 9.14295 38.658 8.98818C38.5561 9.06714 38.4552 9.1471 38.3553 9.22804C39.465 8.40634 40.6606 7.70772 41.9213 7.1445C41.8028 7.19148 41.6844 7.23985 41.5659 7.2896L42.2731 6.99348C42.1546 7.04323 42.0376 7.09436 41.9219 7.14687C43.2245 6.63107 44.5801 6.26084 45.964 6.04291C45.8408 6.05653 45.7182 6.07193 45.5956 6.08792L46.3809 5.97836C46.2412 5.99731 46.1016 6.01705 45.9622 6.03758C47.3951 5.87649 48.8415 5.87649 50.2744 6.03758C50.1354 6.01547 49.9958 5.99573 49.8557 5.97836L50.6428 6.08437C50.5202 6.06838 50.3976 6.05298 50.2744 6.03936C51.6583 6.25728 53.0139 6.62752 54.3165 7.14332C54.1981 7.09061 54.0832 7.03967 53.9653 6.98992L54.6725 7.28605C54.554 7.2363 54.4356 7.18773 54.3171 7.14095C55.5785 7.70434 56.7748 8.40337 57.8848 9.22567C57.7841 9.14394 57.6829 9.06399 57.5804 8.98462C57.7798 9.1394 57.9796 9.29378 58.1798 9.44776C58.0822 9.37274 57.9835 9.29871 57.8836 9.22567C58.945 10.0825 59.9121 11.05 60.7685 12.1117C60.6951 12.0116 60.6198 11.9121 60.544 11.8156L61.0072 12.4149C60.9282 12.3135 60.8492 12.213 60.7703 12.1135C61.5914 13.2227 62.2896 14.4177 62.8526 15.6777C62.806 15.5592 62.7577 15.4408 62.7075 15.3223L63.0037 16.0295C62.9539 15.911 62.9028 15.7939 62.8503 15.6782C63.368 16.9857 63.7391 18.3465 63.9566 19.7358C63.9424 19.6078 63.9268 19.4799 63.9098 19.352C63.9449 19.6149 63.9801 19.8775 64.0152 20.1397C63.9967 20.0046 63.9769 19.87 63.956 19.7358C64.115 21.159 64.115 22.5956 63.956 24.0189C63.9781 23.8851 63.9982 23.7506 64.0164 23.6156V23.6156Z" fill="url(#paint0_linear_620_71)"/>
<defs>
<linearGradient id="paint0_linear_620_71" x1="35.0008" y1="0" x2="35.0008" y2="70" gradientUnits="userSpaceOnUse">
<stop stop-color="#0E1F40"/>
<stop offset="1" stop-color="#E21C34"/>
</linearGradient>
</defs>
</svg>
