<svg width="82" height="70" viewBox="0 0 82 70" fill="none" xmlns="http://www.w3.org/2000/svg">
<path d="M81.9197 42.4876V14.9264C81.9197 13.8115 81.9269 12.6962 81.9197 11.5813C81.9197 11.5364 81.9197 11.492 81.9197 11.4471V11.4313C81.9034 8.65948 80.8988 6.10463 79.1454 3.97856C77.6063 2.11232 75.2792 0.73306 72.9076 0.262416C71.609 0.00718618 70.365 0.00106071 69.0623 0.00106071H11.778C11.3058 -0.0051586 10.8337 0.0159757 10.364 0.0643576C8.88827 0.235362 7.5626 0.598809 6.22418 1.25832C5.11274 1.81621 4.10446 2.55935 3.24258 3.45585C1.34776 5.41806 0.278345 7.9285 0.0363873 10.6293C-0.00751221 11.1214 0.000655103 11.6145 0.000655103 12.1097V42.5846C0.000655103 44.4555 -0.0432444 46.3237 0.587684 48.1251C1.47588 50.6626 3.14662 52.8112 5.43092 54.2435C7.23234 55.3737 9.37729 55.9398 11.4957 55.9433C13.6003 55.9469 15.7049 55.9433 17.8096 55.9433H26.7875L30.8069 59.9627L38.3719 67.5277L40.1126 69.2684C41.0875 70.2428 42.7455 70.2449 43.7225 69.2684L48.4892 64.5017L56.0542 56.9367L57.0476 55.9433H68.0225C70.0817 55.9433 72.1745 56.0454 74.148 55.3395C76.273 54.5825 78.1188 53.3002 79.5001 51.511C80.9131 49.682 81.6951 47.5636 81.8871 45.2635C81.9652 44.3462 81.9197 43.4075 81.9197 42.4876ZM76.8151 11.4313V40.896C76.8151 42.1002 76.8207 43.3049 76.8151 44.5091C76.8151 44.7956 76.8012 45.0806 76.7733 45.3641C76.7947 45.2451 76.8136 45.1262 76.8299 45.0067C76.7993 45.2331 76.7688 45.4592 76.7386 45.6852C76.7518 45.5785 76.7636 45.4713 76.7733 45.3646C76.6759 45.9147 76.5285 46.4549 76.3327 46.9781C76.3792 46.8806 76.4231 46.7821 76.466 46.6826L76.2107 47.2921C76.2543 47.1879 76.2957 47.0833 76.3348 46.9781C76.1018 47.4724 75.8252 47.9449 75.5083 48.3901C75.5716 48.3145 75.6339 48.2369 75.6947 48.1609C75.5619 48.3334 75.4289 48.5056 75.2955 48.6775C75.3687 48.5832 75.4396 48.4874 75.5083 48.3901C75.1619 48.8024 74.7803 49.184 74.368 49.5304C74.465 49.4624 74.5608 49.3914 74.6554 49.3176C74.4835 49.451 74.3113 49.584 74.1388 49.7168C74.2164 49.656 74.2919 49.5937 74.368 49.5304C73.9228 49.8473 73.4503 50.1239 72.9561 50.3569C73.0612 50.3177 73.1659 50.2764 73.27 50.2328L72.6605 50.4881C72.7626 50.4452 72.8586 50.4013 72.9561 50.3548C72.4355 50.5496 71.8984 50.6965 71.3512 50.7938C71.4533 50.7846 71.5594 50.7739 71.6631 50.7607L70.9847 50.852C71.1075 50.835 71.2297 50.8156 71.3512 50.7938C70.5794 50.8627 69.7984 50.8372 69.0245 50.8372H56.36C55.557 50.8372 54.8072 50.9965 54.1829 51.5891C54.0619 51.704 53.947 51.825 53.8296 51.9424L51.7077 54.0643L44.8022 60.9693C43.8415 61.93 42.8685 62.8815 41.9058 63.8417L39.4908 61.4272L32.2153 54.1516L29.9805 51.9153C29.8707 51.8061 29.7645 51.6897 29.6502 51.585C28.9723 50.9679 28.2245 50.8377 27.3883 50.8377H18.6799C16.2695 50.8377 13.8591 50.8484 11.4487 50.8377C11.1588 50.8377 10.8699 50.8229 10.581 50.7959C10.6994 50.8173 10.8178 50.8362 10.9383 50.8525L10.2599 50.7612C10.3671 50.7748 10.4744 50.7863 10.582 50.7959C10.0312 50.6991 9.49052 50.5516 8.96688 50.3553C9.06438 50.4018 9.16289 50.4457 9.26243 50.4886L8.65295 50.2333C8.75708 50.2769 8.86172 50.3183 8.96688 50.3574C8.47353 50.125 8.00187 49.8491 7.5575 49.533C7.63203 49.596 7.70757 49.6574 7.78414 49.7173C7.61093 49.5832 7.43924 49.4498 7.26909 49.3171C7.36455 49.3906 7.46102 49.4626 7.55903 49.532C7.14565 49.1852 6.76339 48.8029 6.41662 48.3896C6.48468 48.4866 6.55547 48.5823 6.62897 48.677C6.49591 48.5051 6.36285 48.3329 6.22979 48.1604C6.29105 48.238 6.35333 48.3135 6.41662 48.3896C6.10017 47.9457 5.82409 47.4743 5.59172 46.9812C5.63017 47.0853 5.67084 47.1888 5.71372 47.2916L5.45849 46.6821C5.50188 46.7842 5.5468 46.8827 5.59376 46.9812C5.39558 46.4544 5.24691 45.9103 5.14966 45.3559C5.16038 45.4657 5.17212 45.5754 5.1859 45.6846C5.15528 45.4583 5.12482 45.2322 5.09453 45.0062C5.11087 45.1231 5.12873 45.24 5.14966 45.3559C5.02919 44.092 5.10933 42.7842 5.10933 41.5229V15.202C5.10933 13.9473 5.10321 12.6921 5.10933 11.4374C5.10933 11.1512 5.12329 10.8662 5.15119 10.5824C5.12975 10.7013 5.11087 10.8203 5.09453 10.9397C5.12516 10.7137 5.15562 10.4876 5.1859 10.2613C5.17263 10.368 5.16089 10.4752 5.15119 10.5819C5.24842 10.0303 5.39657 9.48894 5.59376 8.96473C5.5468 9.06325 5.50188 9.1633 5.45849 9.26386L5.71372 8.65437C5.67084 8.75646 5.63017 8.85992 5.59172 8.96473C5.82344 8.47167 6.09883 8.00034 6.41458 7.55637C6.35128 7.63192 6.28901 7.70951 6.22775 7.78557C6.36047 7.61303 6.49353 7.44084 6.62693 7.26898C6.55411 7.36325 6.48332 7.45905 6.41458 7.55637C6.76135 7.14299 7.14361 6.76073 7.55699 6.41396C7.45898 6.48339 7.3625 6.55536 7.26705 6.62887C7.43924 6.49547 7.61144 6.36241 7.78363 6.22969C7.70706 6.28992 7.63152 6.35135 7.55699 6.41396C8.00136 6.09785 8.47302 5.82196 8.96637 5.58957C8.86121 5.62905 8.75657 5.67039 8.65244 5.71361L9.26192 5.45838C9.16238 5.50126 9.06387 5.54516 8.96637 5.59161C9.48767 5.39646 10.0257 5.24934 10.5738 5.15211C10.4687 5.16181 10.364 5.17253 10.2594 5.1858L10.9378 5.09443C10.8158 5.11127 10.6948 5.13016 10.5738 5.15211C11.3063 5.08728 12.0465 5.10923 12.7815 5.10923H68.3502C69.051 5.10923 69.7524 5.10668 70.4533 5.10923C70.7497 5.10923 71.0447 5.12301 71.3384 5.15058C71.2205 5.12965 71.1016 5.11076 70.9811 5.09443L71.6595 5.1858C71.5523 5.17202 71.4446 5.16079 71.3369 5.15058C71.8878 5.24776 72.4286 5.39539 72.9525 5.59161C72.855 5.54516 72.7565 5.50126 72.6569 5.45838L73.2664 5.71361C73.1623 5.67005 73.0576 5.62871 72.9525 5.58957C73.4468 5.82253 73.9193 6.09911 74.3644 6.41601C74.2889 6.35271 74.2113 6.29043 74.1352 6.22969C74.3078 6.36241 74.4799 6.49547 74.6518 6.62887C74.5575 6.5557 74.4617 6.48475 74.3644 6.41601C74.7773 6.76242 75.1593 7.14397 75.5063 7.55637C75.4383 7.45939 75.3673 7.36359 75.2934 7.26898C75.4268 7.44118 75.5599 7.61337 75.6926 7.78557C75.6319 7.70798 75.5696 7.63243 75.5063 7.55637C75.8238 8.00162 76.1009 8.47431 76.3343 8.96881C76.2951 8.86366 76.2538 8.75902 76.2102 8.65488L76.4655 9.26437C76.4226 9.16228 76.3787 9.06631 76.3322 8.96881C76.5285 9.49213 76.6759 10.0324 76.7728 10.5829C76.7631 10.4757 76.7513 10.369 76.7381 10.2618C76.7687 10.4881 76.7991 10.7142 76.8294 10.9402C76.8131 10.8201 76.7942 10.701 76.7728 10.5829C76.7998 10.8647 76.8131 11.1469 76.8151 11.4313V11.4313Z" fill="url(#paint0_linear_617_63)"/>
<path d="M48.355 34.8986V31.4331L58.6576 16.689H63.7928V31.0553H66.5651V34.8986H63.7928V39.3728H59.3819V34.8986H48.355ZM59.6657 21.4143L53.2069 31.0553H59.6657V21.4143Z" fill="url(#paint1_linear_617_63)"/>
<path d="M42.0314 22.9775C42.0263 22.7896 42.0135 22.6013 41.9931 22.416C41.9492 22.0112 41.8982 21.6049 41.8231 21.2036C41.7543 20.8342 41.6571 20.4707 41.5322 20.1163C41.3995 19.7371 41.2356 19.3665 41.0758 18.9984C41.0023 18.8283 40.9225 18.6609 40.8364 18.4962C40.6631 18.1635 40.4668 17.8433 40.2489 17.538C39.9152 17.0604 39.5505 16.6053 39.157 16.1756C38.9005 15.9013 38.6257 15.6447 38.3347 15.4074C37.8824 15.0388 37.4158 14.6754 36.9176 14.3706C36.5978 14.175 36.2645 14.0024 35.9202 13.854C35.3822 13.6213 34.8482 13.39 34.2796 13.2384C33.7027 13.0853 33.1055 13.0077 32.5118 12.9444C32.1318 12.9034 31.749 12.894 31.3674 12.9163C30.9549 12.9403 30.545 13.0051 30.1367 13.0623C29.939 13.0899 29.7428 13.1261 29.5481 13.171C29.1532 13.2621 28.7666 13.3862 28.3924 13.5421C27.7906 13.7923 27.2026 14.0414 26.6497 14.387C26.5282 14.463 26.4088 14.5401 26.2924 14.6243C26.011 14.4306 25.7172 14.2555 25.4129 14.1001C25.0387 13.9097 24.6472 13.7519 24.2587 13.5927C24.0688 13.5146 23.8749 13.4446 23.6783 13.3834C23.1965 13.2328 22.7085 13.1547 22.2087 13.0873C21.7207 13.022 21.2389 12.9699 20.7473 12.9852C20.5605 12.9914 20.3743 13.005 20.1888 13.0261C19.7856 13.072 19.3798 13.1215 18.9806 13.1981C18.6164 13.2677 18.2581 13.3648 17.9086 13.4885C17.5334 13.6208 17.1669 13.7826 16.8025 13.9408C16.6323 14.0143 16.4652 14.0938 16.3012 14.1792C15.9688 14.3522 15.6487 14.5479 15.343 14.7647C14.865 15.0975 14.4089 15.4606 13.9776 15.852C13.7051 16.1048 13.4493 16.375 13.2119 16.661C12.8343 17.1043 12.4861 17.5716 12.1695 18.0602C11.9717 18.3738 11.7958 18.7008 11.6432 19.0388C11.4038 19.5681 11.1711 20.1107 11.0098 20.6687C10.8433 21.2445 10.7693 21.831 10.6938 22.4246C10.6468 22.797 10.6297 23.1726 10.6427 23.5477C10.6492 23.7376 10.6637 23.9269 10.6861 24.1158C10.7346 24.5242 10.7831 24.9382 10.8653 25.3409C10.9439 25.7299 11.0558 26.1114 11.1996 26.4813C11.4288 27.0688 11.6764 27.6553 11.9995 28.1985C12.3385 28.7681 12.7514 29.299 13.1736 29.8064C13.4028 30.081 13.6509 30.3378 13.903 30.59L14.5569 31.2418L15.6258 32.3107L16.9816 33.666L18.5059 35.1907L20.0857 36.7706L21.5839 38.2683L22.8892 39.571L23.8795 40.5608L24.4206 41.1064L24.491 41.1774C24.7151 41.4222 24.999 41.6044 25.3149 41.7062C25.6172 41.8657 25.9566 41.9417 26.298 41.9262L26.9764 41.8349C27.4024 41.7174 27.7906 41.4914 28.103 41.1789L28.3894 40.8921L29.1678 40.1111L30.3215 38.9579L31.7359 37.5429L33.2786 36.0008L34.8339 34.4439L36.2857 32.9922L37.5108 31.7671L38.3939 30.884C38.5332 30.7446 38.6736 30.6053 38.813 30.4649L38.8313 30.447C38.8824 30.396 38.9293 30.3475 38.9773 30.297C39.4053 29.8371 39.8042 29.3511 40.1718 28.8416C40.4408 28.4804 40.6798 28.0978 40.8864 27.6977C41.0799 27.321 41.2376 26.9264 41.4 26.5354C41.4786 26.3458 41.549 26.1534 41.6113 25.958C41.7332 25.5768 41.8225 25.1859 41.8783 24.7896C41.9635 24.1842 42.0493 23.589 42.0314 22.9775ZM36.8702 24.0775C36.885 23.9652 36.8972 23.8529 36.9059 23.7406C36.832 24.1395 36.7242 24.5315 36.5838 24.9121C36.6307 24.8136 36.6757 24.7136 36.7185 24.613L36.4633 25.223C36.5065 25.1209 36.5475 25.0173 36.5863 24.9121C36.3763 25.3484 36.1281 25.7652 35.8446 26.1576C35.9127 26.0753 35.9797 25.9919 36.0458 25.9075L35.6466 26.4241C35.7146 26.3363 35.7807 26.2475 35.8446 26.1576C35.6486 26.3925 35.4422 26.6182 35.2254 26.835L35.1188 26.9417L34.9391 27.1219L34.1596 27.9014L33.006 29.055L31.5915 30.4695L30.0489 32.0116L28.4925 33.5685L27.0407 35.0192L26.298 35.7619L25.7176 35.1821C25.2191 34.6828 24.7202 34.1839 24.221 33.6854L22.5997 32.0637L20.9969 30.4613L19.5329 28.9973L18.3517 27.8161L17.5886 27.056C17.3992 26.8662 17.2088 26.6778 17.0271 26.4792C16.9433 26.387 16.8617 26.2931 16.782 26.1975C16.8412 26.2807 16.902 26.3623 16.9643 26.4435L16.5651 25.9269C16.636 26.0183 16.708 26.1086 16.782 26.1975C16.5121 25.821 16.2758 25.4217 16.0756 25.004C16.1133 25.1061 16.1537 25.2082 16.1965 25.3103L15.9413 24.7008C15.9847 24.8029 16.0296 24.905 16.0776 25.0025C15.9428 24.6364 15.8388 24.2597 15.7667 23.8764C15.7759 23.9887 15.7878 24.1007 15.8025 24.2123C15.7722 23.9863 15.7419 23.7602 15.7116 23.5339C15.7269 23.6482 15.7453 23.7621 15.7667 23.8754C15.7351 23.4942 15.7351 23.1111 15.7667 22.7299C15.7458 22.8432 15.7274 22.9576 15.7121 23.0719C15.7421 22.8456 15.7723 22.6195 15.803 22.3935C15.7883 22.5051 15.7763 22.6173 15.7667 22.7299C15.8457 22.3081 15.961 21.894 16.1113 21.492C16.064 21.5917 16.0189 21.6923 15.976 21.7937L16.2312 21.1837C16.1884 21.2858 16.1477 21.3879 16.1092 21.49C16.3149 21.0562 16.5585 20.6415 16.8372 20.2506C16.7667 20.3338 16.6988 20.4185 16.633 20.5058L17.0322 19.9892C16.9658 20.0753 16.9011 20.163 16.8382 20.2521C17.1609 19.8658 17.5174 19.5089 17.9035 19.1858C17.8157 19.2475 17.7294 19.3119 17.6442 19.3772L18.1608 18.978C18.0737 19.0461 17.9886 19.1153 17.9056 19.1858C18.2976 18.9063 18.7136 18.6618 19.1485 18.4553C19.0464 18.4938 18.9443 18.5344 18.8422 18.5773L19.4522 18.3221C19.3502 18.365 19.2496 18.4101 19.1506 18.4574C19.5524 18.3067 19.9663 18.1907 20.3879 18.1108C20.2756 18.1199 20.1637 18.132 20.052 18.147L20.7304 18.0556C20.6158 18.0713 20.5016 18.0897 20.3879 18.1108C20.7709 18.0786 21.156 18.0786 21.539 18.1108C21.4242 18.0888 21.3083 18.0704 21.1924 18.0546L21.8683 18.145C21.758 18.1307 21.6472 18.1184 21.5365 18.1097C21.9188 18.1814 22.2945 18.285 22.6595 18.4196C22.5599 18.3716 22.4594 18.3267 22.3578 18.2833L22.9673 18.5385C22.8652 18.4956 22.7631 18.4553 22.661 18.4175C23.0763 18.6171 23.4735 18.8521 23.8483 19.1199C23.7615 19.0474 23.6734 18.9767 23.5839 18.9076L24.1005 19.3068C24.0178 19.2431 23.9337 19.1808 23.8483 19.1199C24.0726 19.3068 24.2878 19.5036 24.4941 19.7105C24.7178 19.9544 25.001 20.1361 25.3159 20.2378C25.6182 20.3973 25.9576 20.4733 26.299 20.4578L26.9764 20.369C27.4024 20.2516 27.7906 20.0256 28.103 19.7131C28.3201 19.4967 28.5459 19.2903 28.7804 19.0939C28.6905 19.1582 28.6017 19.2242 28.5139 19.292L29.0305 18.8928C28.9458 18.9588 28.8624 19.0258 28.7804 19.0939C29.1736 18.8112 29.5911 18.5638 30.0279 18.3548C29.9231 18.3935 29.8195 18.4346 29.7171 18.4778L30.3296 18.22C30.2275 18.2629 30.129 18.3078 30.0305 18.3548C30.4105 18.2145 30.8017 18.1067 31.2 18.0327C31.0877 18.0413 30.9754 18.0536 30.8631 18.0684L31.5415 17.9775C31.4271 17.9928 31.3133 18.0112 31.2 18.0327C31.5869 18.0002 31.9759 18.0002 32.3628 18.0327C32.249 18.0117 32.1341 17.9933 32.0193 17.9775L32.6951 18.072C32.5838 18.0573 32.4722 18.0452 32.3602 18.0357C32.7809 18.1135 33.1941 18.2276 33.595 18.3767C33.4994 18.3308 33.4029 18.2872 33.3056 18.246L33.9182 18.5013C33.812 18.4563 33.7051 18.4141 33.5976 18.3747C34.0242 18.5767 34.4323 18.8158 34.8171 19.0893C34.7334 19.0189 34.6476 18.95 34.5619 18.8826L35.0784 19.2817C34.993 19.2157 34.9062 19.1516 34.8181 19.0893C35.1922 19.4037 35.5384 19.7499 35.8528 20.124C35.7905 20.0355 35.7264 19.9487 35.6604 19.8637L36.0595 20.3803C35.9922 20.2935 35.9232 20.2077 35.8528 20.125C36.1263 20.5098 36.3654 20.9179 36.5674 21.3445C36.5283 21.237 36.4861 21.1301 36.4409 21.0239L36.6961 21.6339C36.6546 21.5363 36.611 21.4398 36.5654 21.3445C36.7145 21.7455 36.8286 22.1586 36.9064 22.5793C36.8972 22.4677 36.8851 22.3561 36.8702 22.2445C36.9008 22.4708 36.9312 22.6969 36.9615 22.9229C36.9457 22.808 36.9273 22.6931 36.9064 22.5793C36.9388 22.9662 36.9388 23.3552 36.9064 23.7421C36.9278 23.6288 36.9462 23.515 36.9615 23.4006C36.9312 23.6256 36.9008 23.8512 36.8702 24.0775Z" fill="url(#paint2_linear_617_63)"/>
<defs>
<linearGradient id="paint0_linear_617_63" x1="40.9664" y1="0" x2="40.9664" y2="70" gradientUnits="userSpaceOnUse">
<stop stop-color="#0E1F40"/>
<stop offset="1" stop-color="#E21C34"/>
</linearGradient>
<linearGradient id="paint1_linear_617_63" x1="57.46" y1="16.689" x2="57.46" y2="39.3728" gradientUnits="userSpaceOnUse">
<stop stop-color="#0E1F40"/>
<stop offset="1" stop-color="#E21C34"/>
</linearGradient>
<linearGradient id="paint2_linear_617_63" x1="26.3362" y1="12.9045" x2="26.3362" y2="41.9282" gradientUnits="userSpaceOnUse">
<stop stop-color="#0E1F40"/>
<stop offset="1" stop-color="#E21C34"/>
</linearGradient>
</defs>
</svg>
