<svg width="29" height="36" viewBox="0 0 29 36" fill="none" xmlns="http://www.w3.org/2000/svg">
<path fill-rule="evenodd" clip-rule="evenodd" d="M18.3943 8.22176C16.3557 6.68941 13.8765 5.86243 11.3292 5.86513C8.78335 5.86255 6.30536 6.68891 4.26754 8.22006C4.18884 8.2797 4.09137 8.30892 3.99296 8.30236C3.89455 8.2958 3.80179 8.2539 3.73165 8.18433L0.146525 4.58727C0.106307 4.54636 0.0750692 4.49745 0.0548211 4.4437C0.0345731 4.38994 0.0257647 4.33253 0.0289594 4.27516C0.0321541 4.21778 0.0472804 4.16171 0.0733699 4.11055C0.0994595 4.0594 0.135935 4.01428 0.180445 3.97812C3.332 1.40491 7.2711 0 11.3343 0C15.3976 0 19.3367 1.40491 22.4882 3.97812C22.5327 4.01428 22.5692 4.0594 22.5953 4.11055C22.6214 4.16171 22.6365 4.21778 22.6397 4.27516C22.6429 4.33253 22.6341 4.38994 22.6138 4.4437C22.5936 4.49745 22.5624 4.54636 22.5221 4.58727L18.9302 8.18773C18.8601 8.25737 18.7671 8.29918 18.6686 8.30543C18.5701 8.31169 18.4727 8.28197 18.3943 8.22176ZM20.7937 24.8423C22.3287 22.7919 23.1573 20.296 23.1544 17.7316C23.1572 15.1674 22.328 12.672 20.792 10.6226C20.7358 10.5495 20.7081 10.4584 20.714 10.3663C20.72 10.2743 20.7591 10.1875 20.8242 10.1223L24.45 6.48611C24.4872 6.44869 24.5318 6.41945 24.5809 6.40023C24.6299 6.38101 24.6824 6.37225 24.7351 6.37449C24.7877 6.37673 24.8393 6.38993 24.8866 6.41324C24.9338 6.43656 24.9758 6.46949 25.0097 6.50993C27.5902 9.67728 28.9999 13.6424 28.9999 17.7333C28.9999 21.8242 27.5902 25.7893 25.0097 28.9566C24.9759 28.997 24.9341 29.0299 24.887 29.0532C24.8399 29.0765 24.7884 29.0897 24.7359 29.092C24.6834 29.0942 24.6311 29.0855 24.5821 29.0663C24.5332 29.0471 24.4888 29.0178 24.4517 28.9805L20.8259 25.3409C20.7613 25.2758 20.7224 25.1894 20.7165 25.0977C20.7106 25.006 20.738 24.9152 20.7937 24.8423ZM11.3273 29.5982C8.76841 29.6015 6.27809 28.7683 4.2334 27.2246C4.16251 27.17 4.07433 27.1431 3.98516 27.1487C3.896 27.1543 3.81188 27.1921 3.74837 27.2552L0.108982 30.9067C0.072533 30.9429 0.0440398 30.9864 0.0253315 31.0344C0.00662316 31.0823 -0.00188628 31.1336 0.000349528 31.1851C0.00258533 31.2365 0.0155144 31.2869 0.0383115 31.333C0.0611086 31.3791 0.0932668 31.42 0.132722 31.4529C3.29061 34.0455 7.24528 35.462 11.3256 35.462C15.406 35.462 19.3606 34.0455 22.5185 31.4529C22.5577 31.42 22.5896 31.3792 22.6123 31.3333C22.6349 31.2873 22.6477 31.2371 22.65 31.1859C22.6522 31.1347 22.6438 31.0835 22.6252 31.0358C22.6067 30.988 22.5784 30.9446 22.5423 30.9084L18.9012 27.2552C18.8379 27.1923 18.7541 27.1545 18.6652 27.1489C18.5764 27.1432 18.4885 27.1701 18.4179 27.2246C16.374 28.7673 13.885 29.6006 11.3273 29.5982ZM18.3959 17.7315C18.3959 21.6484 15.2312 24.8236 11.3274 24.8236C7.42358 24.8236 4.25891 21.6484 4.25891 17.7315C4.25891 13.8147 7.42358 10.6395 11.3274 10.6395C15.2312 10.6395 18.3959 13.8147 18.3959 17.7315Z" fill="white"/>
</svg>
