<svg width="66" height="110" viewBox="0 0 66 110" fill="none" xmlns="http://www.w3.org/2000/svg">
<path d="M53.625 0C56.9071 0 60.0547 1.30379 62.3754 3.62455C64.6962 5.94532 66 9.09295 66 12.375V97.625C66 100.907 64.6962 104.055 62.3754 106.375C60.0547 108.696 56.9071 110 53.625 110H12.375C9.09295 110 5.94532 108.696 3.62455 106.375C1.30379 104.055 0 100.907 0 97.625V12.375C0 9.09295 1.30379 5.94532 3.62455 3.62455C5.94532 1.30379 9.09295 0 12.375 0H53.625ZM53.625 8.25H12.375C11.281 8.25 10.2318 8.6846 9.45818 9.45818C8.6846 10.2318 8.25 11.281 8.25 12.375V97.625C8.25 99.902 10.098 101.75 12.375 101.75H53.625C54.719 101.75 55.7682 101.315 56.5418 100.542C57.3154 99.7682 57.75 98.719 57.75 97.625V12.375C57.75 11.281 57.3154 10.2318 56.5418 9.45818C55.7682 8.6846 54.719 8.25 53.625 8.25ZM33 27.665C33.9985 27.6654 34.9629 28.0279 35.7144 28.6854C36.4659 29.3428 36.9534 30.2505 37.0865 31.24L37.125 31.79V68.706L42.4105 63.4205C43.1093 62.7205 44.0363 62.2948 45.0226 62.2211C46.009 62.1474 46.989 62.4306 47.784 63.019L48.246 63.4205C48.9446 64.1189 49.3694 65.0449 49.443 66.03C49.5167 67.0151 49.2344 67.9939 48.6475 68.7885L48.246 69.256L35.915 81.5815L35.706 81.7795L35.365 82.049L34.9965 82.2745L34.6665 82.4395L34.111 82.6375L33.7645 82.72L33.2585 82.7805H32.7415L32.241 82.72L31.7075 82.5825L31.0915 82.324L30.6735 82.071L30.085 81.5815L17.754 69.256C17.014 68.5209 16.58 67.5328 16.5393 66.4905C16.4987 65.4483 16.8543 64.4293 17.5347 63.6387C18.2151 62.8482 19.1698 62.3447 20.2064 62.2297C21.2431 62.1148 22.2849 62.3968 23.122 63.019L23.5895 63.4205L28.8695 68.7005L28.875 31.7955C28.8748 30.893 29.1706 30.0154 29.717 29.2972C30.2634 28.5789 31.0302 28.0597 31.9 27.819L32.439 27.709L33 27.665Z" fill="url(#paint0_linear)"/>
<defs>
<linearGradient id="paint0_linear" x1="0" y1="0" x2="96.7892" y2="49.1806" gradientUnits="userSpaceOnUse">
<stop stop-color="#0E1F40"/>
<stop offset="1" stop-color="#D12B38"/>
</linearGradient>
</defs>
</svg>
