<svg width="93" height="55" viewBox="0 0 93 55" fill="none" xmlns="http://www.w3.org/2000/svg">
<path fill-rule="evenodd" clip-rule="evenodd" d="M8.91617 2.3225C8.8916 2.44375 8.87616 2.56503 8.87112 2.68444C8.86778 2.74085 8.86609 2.79782 8.86609 2.85532V41.0979C8.86609 41.6856 8.86362 42.2735 8.86115 42.8614C8.8562 44.0374 8.85126 45.2135 8.86609 46.3892V46.4644C8.86609 47.8824 9.97409 49.107 11.3559 49.2919H6.3716C5.99735 49.2919 5.62297 49.2907 5.24853 49.2895C4.49947 49.2871 3.75015 49.2847 3.00108 49.2919H2.85394C1.36202 49.2919 -0.0666046 50.6036 0.00240261 52.1434C0.0714098 53.6833 1.25708 54.995 2.85394 54.995H85.9985C86.373 54.995 86.7475 54.9962 87.122 54.9974C87.871 54.9998 88.62 55.0022 89.369 54.995H89.5161C91.0081 54.995 92.4367 53.6833 92.3677 52.1434C92.2987 50.6036 91.113 49.2919 89.5161 49.2919H81.012C82.3902 49.1073 83.5022 47.8869 83.5022 46.4644V8.22191C83.5022 7.63439 83.5046 7.04662 83.507 6.45875C83.5118 5.28278 83.5167 4.10647 83.5022 2.93117V2.85532C83.5022 1.31549 82.1956 0.00378335 80.6507 0.00378335H14.5173C14.2194 0.00378335 13.9214 0.00295945 13.6235 0.00213562C13.042 0.000527547 12.4606 -0.00108052 11.8794 0.0034407C11.825 0.00134906 11.771 0.00142327 11.7176 0.00378335C11.7169 0.00381775 11.7161 0.00385242 11.7153 0.00388737C10.9636 0.0153676 10.2446 0.314236 9.70615 0.839283C9.56025 0.985188 9.42497 1.1587 9.30757 1.34907C9.11957 1.63927 8.98429 1.96691 8.91617 2.3225ZM77.7991 5.70686H14.5822C14.5813 5.9575 14.5803 6.20813 14.5792 6.45875C14.5768 7.04662 14.5743 7.63439 14.5743 8.22191V43.6129H77.7888C77.7899 43.3623 77.7913 43.1117 77.7927 42.8611C77.7959 42.2732 77.7991 41.6854 77.7991 41.0979V5.70686Z" fill="url(#paint0_linear_621_77)"/>
<defs>
<linearGradient id="paint0_linear_621_77" x1="46.184" y1="-0.000156041" x2="46.184" y2="49.3186" gradientUnits="userSpaceOnUse">
<stop stop-color="#0E1F40"/>
<stop offset="1" stop-color="#E21C34"/>
</linearGradient>
</defs>
</svg>
