<svg width="37" height="35" viewBox="0 0 37 35" fill="none" xmlns="http://www.w3.org/2000/svg">
<path d="M18.0833 0C13.176 0 12.5589 0.021875 10.6307 0.105C8.7026 0.1925 7.3893 0.485625 6.23875 0.91875C5.0319 1.35804 3.93876 2.04712 3.03574 2.93781C2.11592 3.81215 1.40396 4.8699 0.949375 6.0375C0.501812 7.14875 0.196656 8.42188 0.1085 10.2812C0.0226042 12.1516 0 12.7466 0 17.5022C0 22.2534 0.0226042 22.8484 0.1085 24.7144C0.198917 26.5781 0.501812 27.8491 0.949375 28.9625C1.41276 30.1131 2.02985 31.0887 3.03574 32.0622C4.03936 33.0356 5.04751 33.635 6.23649 34.0812C7.3893 34.5144 8.70034 34.8097 10.6262 34.895C12.5566 34.9781 13.1714 35 18.0833 35C22.9952 35 23.6078 34.9781 25.5382 34.895C27.4618 34.8075 28.7796 34.5144 29.9302 34.0812C31.1362 33.6417 32.2286 32.9527 33.1309 32.0622C34.1368 31.0887 34.7539 30.1131 35.2173 28.9625C35.6626 27.8491 35.9677 26.5781 36.0582 24.7144C36.1441 22.8484 36.1667 22.2534 36.1667 17.5C36.1667 12.7466 36.1441 12.1516 36.0582 10.2834C35.9677 8.42188 35.6626 7.14875 35.2173 6.0375C34.7628 4.86987 34.0508 3.8121 33.1309 2.93781C32.2282 2.04679 31.135 1.35766 29.9279 0.91875C28.7751 0.485625 27.4595 0.190313 25.5359 0.105C23.6055 0.021875 22.993 0 18.0788 0H18.0856H18.0833ZM16.4626 3.15438H18.0856C22.9138 3.15438 23.4857 3.16969 25.3913 3.255C27.1544 3.33156 28.1128 3.61812 28.7502 3.85656C29.5934 4.17375 30.1969 4.55438 30.8298 5.16687C31.4627 5.77938 31.8538 6.36125 32.1815 7.17938C32.4302 7.79406 32.724 8.72156 32.8032 10.4278C32.8913 12.2719 32.9094 12.8253 32.9094 17.4956C32.9094 22.1659 32.8913 22.7216 32.8032 24.5656C32.724 26.2719 32.4279 27.1972 32.1815 27.8141C31.8916 28.5739 31.4289 29.261 30.8276 29.8244C30.1946 30.4369 29.5934 30.8153 28.748 31.1325C28.1151 31.3731 27.1566 31.6575 25.3913 31.7362C23.4857 31.8194 22.9138 31.8391 18.0856 31.8391C13.2573 31.8391 12.6832 31.8194 10.7777 31.7362C9.01454 31.6575 8.05838 31.3731 7.42095 31.1325C6.63545 30.8523 5.92484 30.4053 5.34136 29.8244C4.73953 29.2601 4.27608 28.5724 3.98511 27.8119C3.73873 27.1972 3.44261 26.2697 3.3635 24.5634C3.2776 22.7194 3.25952 22.1659 3.25952 17.4912C3.25952 12.8187 3.2776 12.2675 3.3635 10.4234C3.44487 8.71719 3.73873 7.78969 3.98737 7.17281C4.31514 6.35687 4.70845 5.77281 5.34136 5.16031C5.97428 4.54781 6.57555 4.16937 7.42095 3.85219C8.05838 3.61156 9.01454 3.32719 10.7777 3.24844C12.4459 3.17406 13.0923 3.15219 16.4626 3.15V3.15438ZM27.7376 6.05937C27.4526 6.05937 27.1704 6.11369 26.9071 6.21923C26.6439 6.32476 26.4047 6.47945 26.2031 6.67445C26.0016 6.86945 25.8418 7.10096 25.7328 7.35574C25.6237 7.61052 25.5676 7.8836 25.5676 8.15938C25.5676 8.43515 25.6237 8.70823 25.7328 8.96301C25.8418 9.21779 26.0016 9.4493 26.2031 9.6443C26.4047 9.8393 26.6439 9.99399 26.9071 10.0995C27.1704 10.2051 27.4526 10.2594 27.7376 10.2594C28.3131 10.2594 28.865 10.0381 29.272 9.6443C29.6789 9.25047 29.9076 8.71633 29.9076 8.15938C29.9076 7.60242 29.6789 7.06828 29.272 6.67445C28.865 6.28062 28.3131 6.05937 27.7376 6.05937ZM18.0856 8.51375C16.8538 8.49515 15.6305 8.71387 14.487 9.15718C13.3434 9.60049 12.3024 10.2595 11.4245 11.0959C10.5466 11.9323 9.84946 12.9294 9.37359 14.029C8.89772 15.1286 8.65265 16.3089 8.65265 17.5011C8.65265 18.6933 8.89772 19.8735 9.37359 20.9732C9.84946 22.0728 10.5466 23.0699 11.4245 23.9063C12.3024 24.7427 13.3434 25.4017 14.487 25.845C15.6305 26.2883 16.8538 26.507 18.0856 26.4884C20.5235 26.4516 22.8488 25.4886 24.5594 23.8071C26.27 22.1257 27.2288 19.8607 27.2288 17.5011C27.2288 15.1415 26.27 12.8765 24.5594 11.1951C22.8488 9.51363 20.5235 8.55056 18.0856 8.51375ZM18.0856 11.6659C19.6845 11.6659 21.2178 12.2806 22.3484 13.3747C23.479 14.4688 24.1141 15.9527 24.1141 17.5C24.1141 19.0473 23.479 20.5312 22.3484 21.6253C21.2178 22.7194 19.6845 23.3341 18.0856 23.3341C16.4867 23.3341 14.9533 22.7194 13.8228 21.6253C12.6922 20.5312 12.0571 19.0473 12.0571 17.5C12.0571 15.9527 12.6922 14.4688 13.8228 13.3747C14.9533 12.2806 16.4867 11.6659 18.0856 11.6659Z" fill="url(#paint0_linear)"/>
<defs>
<linearGradient id="paint0_linear" x1="0.0188264" y1="1.34854e-06" x2="43.0006" y2="17.7967" gradientUnits="userSpaceOnUse">
<stop stop-color="#0E1F40"/>
<stop offset="1" stop-color="#E21C34"/>
</linearGradient>
</defs>
</svg>
